<svg width="254" height="237" viewBox="0 0 254 237" fill="none" xmlns="http://www.w3.org/2000/svg">
<mask id="mask0_209_2782" style="mask-type:alpha" maskUnits="userSpaceOnUse" x="0" y="0" width="254" height="237">
<path d="M0 10.5938C0 5.07091 4.47715 0.59375 10 0.59375H254V236.622H10C4.47715 236.622 0 232.145 0 226.622V10.5938Z" fill="#203298"/>
</mask>
<g mask="url(#mask0_209_2782)">
<path d="M-130.594 156.805L67.4012 -143.18L71.401 -140.54L-126.594 159.445L-130.594 156.805Z" fill="#283154"/>
<path d="M-40.599 216.203L157.397 -83.781L161.396 -81.141L-36.5992 218.843L-40.599 216.203Z" fill="#283154"/>
<path d="M49.3963 275.602L247.392 -24.3823L251.392 -21.7424L53.3961 278.242L49.3963 275.602Z" fill="#283154"/>
<path d="M-112.595 168.684L85.4003 -131.3L89.4001 -128.66L-108.595 171.324L-112.595 168.684Z" fill="#283154"/>
<path d="M-22.5999 228.083L175.396 -71.9013L179.395 -69.2613L-18.6001 230.723L-22.5999 228.083Z" fill="#283154"/>
<path d="M67.3954 287.482L265.391 -12.5026L269.391 -9.86268L71.3952 290.122L67.3954 287.482Z" fill="#283154"/>
<path d="M-94.5961 180.564L103.399 -119.42L107.399 -116.78L-90.5963 183.204L-94.5961 180.564Z" fill="#283154"/>
<path d="M-4.60083 239.963L193.395 -60.0215L197.394 -57.3816L-0.601042 242.603L-4.60083 239.963Z" fill="#283154"/>
<path d="M85.3945 299.361L283.39 -0.622889L287.39 2.01705L89.3942 302.001L85.3945 299.361Z" fill="#283154"/>
<path d="M-76.5971 192.444L121.398 -107.54L125.398 -104.9L-72.5973 195.084L-76.5971 192.444Z" fill="#283154"/>
<path d="M13.3982 251.843L211.394 -48.1418L215.393 -45.5019L17.398 254.482L13.3982 251.843Z" fill="#283154"/>
<path d="M103.394 311.241L301.389 11.2568L305.389 13.8968L107.393 313.881L103.394 311.241Z" fill="#283154"/>
<path d="M-58.598 204.324L139.397 -95.6607L143.397 -93.0208L-54.5982 206.964L-58.598 204.324Z" fill="#283154"/>
<path d="M31.3973 263.722L229.393 -36.2621L233.393 -33.6221L35.3971 266.362L31.3973 263.722Z" fill="#283154"/>
<path d="M121.393 323.121L319.388 23.1366L323.388 25.7765L125.392 325.761L121.393 323.121Z" fill="#283154"/>
<path d="M139.392 335.001L337.387 35.0163L341.387 37.6562L143.391 337.641L139.392 335.001Z" fill="#283154"/>
<path d="M157.391 346.88L355.386 46.896L359.386 49.536L161.39 349.52L157.391 346.88Z" fill="#283154"/>
<path d="M175.39 358.76L373.385 58.7758L377.385 61.4157L179.39 361.4L175.39 358.76Z" fill="#283154"/>
</g>
</svg>
