<svg width="119" height="135" viewBox="0 0 119 135" fill="none" xmlns="http://www.w3.org/2000/svg">
<path d="M51.0158 64.8175C46.5231 64.8066 43.2617 61.1128 43.798 56.6202C44.4054 51.4982 48.9637 47.8646 53.9489 48.5322C58.967 49.2053 61.7469 53.8403 59.9793 58.6066C58.6386 62.2292 54.8902 64.823 51.0158 64.8175Z" fill="#DB9E54"/>
<path d="M70.1857 41.3281C74.5689 41.3664 77.8468 44.2393 78.104 47.9714C78.3666 51.8129 75.3569 55.43 71.313 56.0867C68.3415 56.5737 65.6711 55.9006 63.619 53.6297C60.374 50.029 61.7585 44.606 66.4536 42.2912C67.7286 41.6619 69.0858 41.3336 70.1857 41.3281Z" fill="#DB9E54"/>
<path d="M67.2907 73.1235C67.2523 77.5013 63.8432 81.0145 59.6569 80.9926C55.2189 80.9762 51.651 77.5177 51.7167 73.3041C51.7824 68.9592 55.394 65.3858 59.6897 65.4241C63.969 65.457 67.329 68.8607 67.2907 73.1235Z" fill="#DB9E54"/>
<path d="M35.0373 73.808C31.7376 73.7806 29.1602 71.3783 28.4925 67.7065C27.7866 63.8212 29.9755 59.531 33.4449 57.9987C37.5545 56.182 42.1293 58.6335 42.8954 63.0606C43.563 66.9239 41.6806 71.1157 38.4903 72.8832C37.4123 73.4797 36.274 73.8189 35.0373 73.808Z" fill="#DB9E54"/>
<path d="M38.2383 42.5773C38.2438 37.0176 43.7488 32.6179 49.139 33.8656C52.5482 34.6536 54.3595 37.5593 53.5715 40.9795C52.5153 45.5542 47.7983 48.9853 43.3548 48.4053C40.1974 47.9948 38.2328 45.7567 38.2383 42.5773Z" fill="#DB9E54"/>
<path d="M76.358 72.8616C72.2156 72.5661 69.1675 69.2773 69.4576 65.4029C69.7804 61.0525 73.2225 57.999 77.4579 58.311C81.5785 58.6119 84.5937 62.0977 84.2599 66.1745C83.9425 70.0872 80.3309 73.1461 76.358 72.8616Z" fill="#DB9E54"/>
<path d="M36.5421 81.5278C36.564 77.4784 39.705 74.2169 43.5465 74.2662C47.5577 74.3154 50.8848 77.9107 50.8684 82.1845C50.852 86.1628 47.7164 89.4133 43.9241 89.3805C39.8911 89.3476 36.5202 85.7633 36.5421 81.5278Z" fill="#DB9E54"/>
<path d="M63.0064 39.9728C58.4864 40.3121 54.9896 36.9905 55.6736 32.9903C55.9746 31.2337 56.9924 29.9094 58.3714 28.8368C61.2334 26.5987 65.4197 26.2649 68.3582 28.0434C70.8536 29.5537 71.7948 32.2625 70.6292 34.9384C69.19 38.2326 66.4649 39.6773 63.0064 39.9728Z" fill="#DB9E54"/>
<path d="M36.6412 48.438C36.778 52.3014 32.559 57.1389 29.1005 57.4344C27.1415 57.604 25.6038 57.0677 24.4929 55.4644C23.4094 53.8939 23.1084 52.1592 23.4696 50.2767C24.0387 47.2998 25.363 44.7771 27.9732 43.1464C29.7736 42.0246 31.7819 41.3953 33.7957 42.5663C35.8095 43.7374 36.6522 45.6472 36.6412 48.438Z" fill="#DB9E54"/>
<path d="M88.0802 36.4858C90.3894 36.5022 92.3102 37.3777 93.7549 39.189C96.0368 42.051 95.3363 45.9801 92.1843 47.8406C89.6562 49.3345 87.035 49.3181 84.4685 47.9446C81.9294 46.5929 80.6379 43.9006 81.2071 41.3943C81.7981 38.7841 84.1894 36.7484 86.9912 36.4912C87.3524 36.4529 87.719 36.4858 88.0802 36.4858Z" fill="#DB9E54"/>
<path d="M27.5074 74.9738C27.4965 76.9493 27.0861 78.8153 25.8876 80.4242C23.8027 83.2314 20.1528 83.2533 18.1499 80.4023C15.8516 77.1244 15.8297 73.6222 17.6136 70.1309C18.5494 68.2977 20.202 67.3784 22.2814 67.4988C24.4156 67.6191 25.6633 69.0419 26.5771 70.7766C27.2721 72.0681 27.4855 73.5073 27.5074 74.9738Z" fill="#DB9E54"/>
<path d="M74.1467 90.2408C74.1303 93.5625 71.6405 96.0359 68.3188 96.0359C64.6415 96.0359 61.4676 92.8401 61.4785 89.1573C61.4895 85.7044 64.0231 83.1379 67.394 83.1762C71.1534 83.209 74.1686 86.3665 74.1467 90.2408Z" fill="#DB9E54"/>
<path d="M94.2359 53.3751C97.8038 53.3587 100.786 56.2918 100.83 59.8651C100.868 63.1485 98.2087 65.7915 94.8269 65.8244C91.1277 65.8572 88.1563 63.0554 88.1235 59.4985C88.0851 56.0729 90.7611 53.3915 94.2359 53.3751Z" fill="#DB9E54"/>
<path d="M24.6787 89.8243C24.6842 87.0116 26.0577 84.9321 28.3178 84.3356C29.9704 83.8979 31.426 84.4287 32.7612 85.3425C35.4098 87.1593 36.8052 90.8421 36.0719 93.9668C35.3167 97.1899 31.4314 98.6838 28.5476 96.8561C26.3696 95.4771 24.6733 92.4017 24.6787 89.8243Z" fill="#DB9E54"/>
<path d="M89.4037 82.6889C89.4202 86.4975 86.9577 89.1461 83.4007 89.1461C80.3198 89.1461 77.5181 85.9996 77.4962 82.5192C77.4798 79.0225 79.9532 76.4998 83.3569 76.467C86.3502 76.4396 89.7211 79.8762 89.4037 82.6889Z" fill="#DB9E54"/>
<path d="M47.4375 96.4189C47.432 92.7525 50.9014 90.3939 54.5678 91.5705C57.6159 92.5445 60.0017 96.0467 59.7828 99.2316C59.6351 101.382 57.6104 103.297 55.2464 103.522C51.4268 103.878 47.443 100.255 47.4375 96.4189Z" fill="#DB9E54"/>
<path d="M81.283 32.6627C77.9066 32.6682 75.3018 31.1415 74.3606 28.5914C73.6547 26.6871 74.087 25.0126 75.6247 23.6992C78.5797 21.1711 83.6634 21.4885 86.2791 24.3614C88.7307 27.0592 88.0083 30.452 84.6812 31.9623C83.5922 32.4548 82.465 32.6682 81.283 32.6627Z" fill="#DB9E54"/>
<path d="M47.7608 25.9537C47.7389 28.8923 45.1779 31.7871 41.8563 32.5915C41.2379 32.7392 40.5867 32.8323 39.9519 32.8213C36.6029 32.783 34.6165 30.222 35.3826 26.9825C36.3403 22.933 41.1394 20.4377 44.9973 21.9808C46.8086 22.7086 47.7772 24.0931 47.7608 25.9537Z" fill="#DB9E54"/>
<path d="M57.4794 14.9423C58.1798 14.8821 58.8529 15.0463 59.5096 15.2324C63.176 16.2994 64.3306 20.1026 61.8955 23.0467C59.8981 25.4545 56.1059 26.3738 53.222 25.148C50.2615 23.8894 49.3094 20.7155 51.1535 18.0779C52.6803 15.9055 54.8965 15.0299 57.4794 14.9423Z" fill="#DB9E54"/>
<path d="M21.3403 57.4399C21.2856 59.7765 20.7493 61.9709 19.3648 63.9026C18.8395 64.6304 18.1992 65.2269 17.3839 65.6263C15.6492 66.48 14.1881 66.1024 13.0608 64.5319C12.3604 63.5469 11.9992 62.4306 11.95 61.265C11.8241 58.3647 12.5793 55.6943 14.3742 53.3686C15.0582 52.4875 15.9611 51.9075 17.061 51.6339C18.4947 51.2782 19.726 51.8035 20.3936 53.1168C21.0776 54.4794 21.3512 55.9296 21.3403 57.4399Z" fill="#DB9E54"/>
<path d="M32.3451 32.7654C32.3725 36.3332 29.2314 40.3936 25.7675 41.2637C23.4363 41.8492 21.4828 40.3389 21.729 37.8928C22.1011 34.1443 23.8632 31.162 27.3654 29.4984C30.1891 28.1577 32.3232 29.6134 32.3451 32.7654Z" fill="#DB9E54"/>
<path d="M103.927 77.5613C103.916 80.954 101.377 83.4384 98.4275 82.9514C95.8775 82.53 93.8801 79.5422 94.2796 76.7349C94.7064 73.7143 96.8953 71.6458 99.4289 71.8701C101.952 72.1 103.938 74.6063 103.927 77.5613Z" fill="#DB9E54"/>
<path d="M118.385 58.7792C118.309 61.4606 116.432 63.3758 113.936 63.3211C110.872 63.25 108.136 60.2019 108.245 56.9733C108.333 54.3467 110.276 52.4861 112.831 52.5901C115.83 52.7105 118.473 55.66 118.385 58.7792Z" fill="#DB9E54"/>
<path d="M105.787 36.2188C108.556 36.2297 110.986 37.8221 111.938 40.0931C113.044 42.7362 111.566 45.3519 108.726 45.7021C106.034 46.0359 103.927 44.9688 102.433 42.7635C101.497 41.3845 101.273 39.8304 102.094 38.3146C102.92 36.7933 104.354 36.2406 105.787 36.2188Z" fill="#DB9E54"/>
<path d="M46.5508 106.558C46.5617 108.642 44.8762 110.35 42.7366 110.437C39.6995 110.558 36.7664 107.92 36.5256 104.856C36.3177 102.18 38.4683 100.117 41.1223 100.44C43.8311 100.779 46.5343 103.827 46.5508 106.558Z" fill="#DB9E54"/>
<path d="M73.2005 18.8222C71.4713 18.7401 69.9172 18.368 68.6257 17.29C66.6667 15.6483 66.8746 13.3226 69.069 12.0312C71.5698 10.5537 75.2143 10.8601 77.4579 12.7371C79.4334 14.3897 79.2638 16.5458 77.0475 17.8427C75.8381 18.5486 74.5029 18.7948 73.2005 18.8222Z" fill="#DB9E54"/>
<path d="M25.4832 102.07C25.4886 104.795 23.5898 106.108 21.6198 105.003C18.6046 103.312 16.8699 100.598 16.3172 97.2051C16.1476 96.1544 16.547 95.0764 17.5211 94.4635C18.528 93.8287 19.617 93.9053 20.5965 94.5729C23.4037 96.4937 24.9797 99.1915 25.4832 102.07Z" fill="#DB9E54"/>
<path d="M15.7645 86.1041C15.8247 86.8483 15.7043 87.6855 15.4033 88.479C14.6591 90.4545 12.5906 90.936 11.0201 89.5242C9.05552 87.7512 7.83521 82.3337 8.85852 79.9259C9.81616 77.6768 12.2349 77.3595 13.7616 79.2857C14.9163 80.7358 15.759 83.5704 15.7645 86.1041Z" fill="#DB9E54"/>
<path d="M99.7902 28.3277C96.5616 28.2621 93.727 26.4234 92.9554 24.0047C92.4684 22.4725 92.9226 21.3288 94.3289 20.5681C95.1662 20.1139 96.0636 19.9334 97.0103 20.0428C99.0351 20.2836 100.803 21.0989 102.182 22.6093C103.199 23.7256 103.845 25.0499 103.161 26.5657C102.483 28.0705 101.082 28.3277 99.7902 28.3277Z" fill="#DB9E54"/>
<path d="M76.9656 109.513C74.3991 109.502 71.3784 105.907 71.8053 103.379C72.2978 100.495 76.1009 99.1596 78.4814 101.058C80.0409 102.301 80.8727 103.975 80.9931 105.956C81.119 107.959 79.3077 109.524 76.9656 109.513Z" fill="#DB9E54"/>
<path d="M11.3535 46.4137C11.4356 43.1359 12.6997 40.2794 15.2826 38.0412C15.9338 37.4776 16.6397 37.007 17.5809 37.3517C18.4729 37.68 18.7848 38.479 18.8286 39.2725C19.042 43.0319 17.7505 46.2222 14.9159 48.723C14.1608 49.3906 13.1703 49.6095 12.2072 49.117C11.1127 48.5588 11.4082 47.4753 11.3535 46.4137Z" fill="#DB9E54"/>
<path d="M60.1818 110.056C60.1599 107.72 62.0096 106.319 64.2258 107.057C66.2943 107.747 67.8484 109.109 68.8991 111.008C69.6597 112.382 69.512 113.98 68.6255 114.959C67.7007 115.988 66.349 116.169 64.7457 115.485C63.0712 114.768 61.7469 113.646 60.7728 112.108C60.3734 111.479 60.1873 110.795 60.1818 110.056Z" fill="#DB9E54"/>
<path d="M93.6008 100.025C93.5625 101.24 93.3545 102.575 91.9153 103.188C90.3612 103.85 88.7962 103.702 87.5102 102.575C85.9944 101.245 85.4307 99.4286 85.573 97.4696C85.6715 96.1344 86.4814 95.1713 87.8495 94.832C89.617 94.3942 91.2258 94.6569 92.4188 96.1508C93.267 97.2288 93.6227 98.4984 93.6008 100.025Z" fill="#DB9E54"/>
<path d="M4.33837 68.5443C4.32742 66.9245 4.50254 65.3321 5.06618 63.8054C5.2194 63.3949 5.39451 62.9845 5.62981 62.6179C6.05665 61.9448 6.65859 61.414 7.49037 61.4687C8.37139 61.5289 8.97881 62.1363 9.23601 62.9462C10.3086 66.3609 10.0568 69.7154 8.38234 72.8674C7.59434 74.3503 5.99098 74.2354 5.11542 72.7634C4.33837 71.4555 4.34384 69.9944 4.33837 68.5443Z" fill="#DB9E54"/>
<path d="M34.9825 117.383C32.7498 117.35 29.3023 114.691 28.6949 112.535C28.1641 110.647 29.4446 109.06 31.3544 109.241C33.5816 109.449 36.7062 111.977 37.3793 114.116C37.9375 115.895 36.8266 117.411 34.9825 117.383Z" fill="#DB9E54"/>
<path d="M43.5629 15.0575C43.5465 15.6923 43.0923 16.4694 42.3864 17.1206C41.2427 18.1712 39.8911 18.8881 38.4683 19.4627C37.5599 19.8293 36.5475 20.0756 35.7486 19.2547C34.9661 18.4558 34.7581 17.4106 34.9989 16.3326C35.4859 14.1437 39.4806 11.4568 41.6805 11.8016C42.7585 11.9767 43.5684 13.2134 43.5629 15.0575Z" fill="#DB9E54"/>
<path d="M53.3749 6.58594C53.6212 6.60235 53.944 6.60236 54.2614 6.63519C55.4379 6.76105 56.4941 7.08391 56.8443 8.40819C57.1672 9.63397 56.5488 11.1717 55.334 11.8119C53.4515 12.8024 51.4542 13.0486 49.3966 12.3537C48.6524 12.1019 48.0888 11.6313 48.034 10.8269C47.9465 9.55189 48.4007 8.45197 49.424 7.64755C50.5567 6.76105 51.9138 6.60783 53.3749 6.58594Z" fill="#DB9E54"/>
<path d="M57.0741 121.399C54.8688 121.158 53.0849 120.331 51.6457 118.81C51.2298 118.367 50.9507 117.842 50.7756 117.251C50.3761 115.904 50.8303 115.045 52.1655 114.69C54.0206 114.197 55.6513 114.668 57.1234 115.839C57.8238 116.397 58.3984 117.059 58.9402 117.76C59.5093 118.498 59.9416 119.275 59.4053 120.184C58.869 121.098 57.9661 121.393 57.0741 121.399Z" fill="#DB9E54"/>
<path d="M105.383 94.5361C105.383 96.5772 104.064 98.2955 102.253 98.8099C101.58 99.0014 100.983 98.881 100.42 98.5089C98.7013 97.3652 98.1158 94.1257 99.3197 92.4293C100.234 91.1378 101.76 90.4264 102.937 90.7329C103.998 91.012 105.175 92.5825 105.35 93.967C105.372 94.2023 105.377 94.443 105.383 94.5361Z" fill="#DB9E54"/>
<path d="M89.4975 12.7606C87.6479 12.6675 85.946 12.1094 84.4412 11.0259C83.6039 10.4239 83.0403 9.6031 83.3796 8.53602C83.7024 7.54007 84.6108 7.16796 85.5739 7.10777C87.7409 6.97096 89.7054 7.62216 91.4566 8.89171C92.261 9.47724 92.7972 10.2488 92.5072 11.2667C92.2172 12.3009 91.2595 12.5472 90.3402 12.7496C90.0721 12.8098 89.7766 12.7606 89.4975 12.7606Z" fill="#DB9E54"/>
<path d="M23.0259 25.0725C22.9766 24.383 23.1791 23.6881 23.5348 23.0533C24.5636 21.2146 26.1013 19.8685 27.8907 18.8287C29.1712 18.0845 29.9482 18.4949 30.2273 19.9396C30.4243 20.952 30.3313 21.9589 29.7567 22.8399C28.6896 24.4761 27.3544 25.8551 25.5869 26.7306C23.8029 27.6117 23.0313 27.1027 23.0259 25.0725Z" fill="#DB9E54"/>
<path d="M5.22986 47.0767C5.12041 49.2711 4.53488 51.5858 3.26533 53.7036C3.01908 54.114 2.72906 54.5135 2.38431 54.8473C1.43762 55.7611 0.611308 55.5094 0.299392 54.218C0.0586142 53.2275 0.129752 52.2151 0.27203 51.2137C0.567529 49.1616 1.16947 47.2081 2.32411 45.4679C2.7783 44.7784 3.30364 43.8864 4.27222 44.16C5.18608 44.4172 5.09853 45.4351 5.22439 46.2176C5.25722 46.4091 5.22986 46.6171 5.22986 47.0767Z" fill="#DB9E54"/>
<path d="M64.9977 4.02549C66.415 4.02002 67.597 4.36477 68.6312 5.11446C69.4849 5.73282 69.4958 6.83821 68.7024 7.45657C66.798 8.93954 63.6624 8.9286 61.7253 7.42921C60.5487 6.52083 60.6582 5.34977 61.9934 4.70952C62.9784 4.23344 64.0346 4.02002 64.9977 4.02549Z" fill="#DB9E54"/>
<path d="M19.2115 19.1396C19.4194 17.1313 22.7027 13.3993 24.6673 12.9396C25.5264 12.7371 26.0791 13.1749 25.8219 14.0176C24.9628 16.8468 23.1788 18.9426 20.4646 20.152C19.6657 20.5022 19.1184 19.9988 19.2115 19.1396Z" fill="#DB9E54"/>
<path d="M3.83984 90.2238C3.88362 89.4577 3.7304 88.7846 4.38159 88.522C4.99448 88.2757 5.45962 88.719 5.84815 89.1294C7.51718 90.9297 8.46388 93.0639 8.69371 95.51C8.74844 96.0791 8.74296 96.7193 8.13555 96.9875C7.52266 97.2611 7.03015 96.8014 6.66351 96.3965C5.0109 94.5907 4.06968 92.4565 3.83984 90.2238Z" fill="#DB9E54"/>
<path d="M9.96383 31.67C10.5931 29.2239 11.8901 26.9311 14.2705 25.3934C15.1734 24.8133 15.9286 25.3113 15.737 26.3839C15.2445 29.1473 13.7889 31.3526 11.4851 32.9669C11.1677 33.1913 10.7573 33.3445 10.3524 33.1092C9.88722 32.8356 9.94742 32.3705 9.96383 31.67Z" fill="#DB9E54"/>
<path d="M18.9271 110.226C18.9709 111.304 18.5112 111.534 17.7123 111.337C15.8025 110.866 12.5684 107.167 12.3495 105.208C12.2619 104.436 12.448 103.916 13.3728 104.048C15.2881 104.316 18.8833 108.431 18.9271 110.226Z" fill="#DB9E54"/>
<path d="M46.4631 121.974C48.1923 122.171 49.7355 122.778 50.9011 124.13C51.3498 124.65 51.5194 125.284 51.2458 125.936C50.9503 126.636 50.3046 126.997 49.5987 126.97C47.8147 126.893 46.2114 126.286 44.9965 124.907C44.515 124.36 44.3563 123.665 44.6737 122.986C45.0129 122.258 45.6532 121.935 46.4631 121.974Z" fill="#DB9E54"/>
<path d="M84.7793 113.196C85.7753 113.3 86.7603 113.737 87.5592 114.498C88.9382 115.817 88.5278 117.305 86.6837 117.82C85.3977 118.181 83.2526 117.393 82.5084 116.277C82.1253 115.707 81.9611 115.1 82.3661 114.482C82.8969 113.661 83.6466 113.179 84.7793 113.196Z" fill="#DB9E54"/>
<path d="M96.9886 111.774C96.9394 112.918 96.1842 113.586 95.0132 113.509C93.563 113.416 91.9979 111.78 92.0308 110.385C92.0581 109.181 92.8626 108.311 93.9187 108.349C95.5275 108.409 97.0543 110.111 96.9886 111.774Z" fill="#DB9E54"/>
<path d="M77.6666 122.958C76.3642 122.908 75.2369 122.536 74.2957 121.716C73.8032 121.283 73.4092 120.72 73.6718 120.019C73.9181 119.346 74.5365 119.105 75.2041 119.023C76.3532 118.886 77.4641 119.04 78.46 119.631C79.2918 120.118 80.244 120.681 79.9047 121.852C79.5928 122.952 78.5366 122.914 77.6666 122.958Z" fill="#DB9E54"/>
<path d="M68.0951 125.313C69.3154 125.34 70.4755 125.587 71.5097 126.271C71.9147 126.539 72.3032 126.884 72.2539 127.42C72.1992 127.973 71.7286 128.219 71.2689 128.356C69.4029 128.908 67.6354 128.64 65.9773 127.639C65.5505 127.382 65.2276 127.009 65.3097 126.462C65.3863 125.97 65.7912 125.751 66.2071 125.581C66.8091 125.335 67.4493 125.308 68.0951 125.313Z" fill="#DB9E54"/>
<path d="M2.69104 76.5497C2.71293 77.4417 2.59254 78.3117 2.25327 79.1435C2.11646 79.4828 1.97418 79.833 1.5364 79.8658C1.10409 79.8987 0.879734 79.6086 0.726512 79.2639C-0.132628 77.3048 -0.242074 75.3075 0.463843 73.2773C0.584232 72.9325 0.748399 72.5823 1.17523 72.5495C1.66773 72.5112 1.85926 72.8997 2.03985 73.2664C2.55423 74.3061 2.67463 75.4169 2.69104 76.5497Z" fill="#DB9E54"/>
<path d="M26.3092 118.297C27.9891 118.297 31.1521 120.831 31.464 122.231C31.6117 122.899 31.371 123.216 30.6486 123.173C29.1876 123.08 26.3092 120.743 25.8385 119.282C25.6087 118.565 25.8878 118.308 26.3092 118.297Z" fill="#DB9E54"/>
<path d="M33.5815 9.47486C33.0726 9.4475 32.7607 9.11916 33.1547 8.47891C34.167 6.8263 35.6609 5.79205 37.5434 5.39805C38.2329 5.2503 38.6324 5.57316 38.2931 6.37211C37.7623 7.60883 35.0645 9.47486 33.5815 9.47486Z" fill="#DB9E54"/>
<path d="M64.7676 134.791C63.6458 134.714 62.5842 134.55 61.6047 134.041C61.249 133.855 60.8604 133.62 60.9644 133.144C61.052 132.744 61.4405 132.646 61.8071 132.575C63.2682 132.29 64.68 132.503 66.0372 133.078C66.4421 133.253 66.9401 133.472 66.9182 133.959C66.8908 134.561 66.2615 134.588 65.8183 134.703C65.468 134.791 65.0959 134.769 64.7676 134.791Z" fill="#DB9E54"/>
<path d="M45.9593 131.521C44.3998 131.302 42.9715 130.711 41.8223 129.557C41.6034 129.338 41.3353 129.064 41.4885 128.714C41.6582 128.337 42.0467 128.244 42.4133 128.287C44.0112 128.479 45.445 129.064 46.6324 130.181C46.8896 130.421 47.1906 130.717 47.0429 131.116C46.8623 131.603 46.3807 131.456 45.9593 131.521Z" fill="#DB9E54"/>
<path d="M47.3391 2.81605C46.8575 2.7668 46.2501 2.81058 46.0859 2.30166C45.9054 1.73802 46.5018 1.49725 46.9013 1.27289C47.9629 0.670941 49.123 0.386384 50.3433 0.430162C50.7373 0.441107 51.2079 0.484886 51.3119 0.950024C51.3995 1.35497 51.0274 1.57933 50.7319 1.77633C49.7031 2.46583 48.5265 2.6683 47.3391 2.81605Z" fill="#DB9E54"/>
</svg>
