<svg width="162" height="46" viewBox="0 0 162 46" fill="none" xmlns="http://www.w3.org/2000/svg">
<path d="M152.07 28.1738C152.103 28.1738 152.136 28.1738 152.169 28.1738C152.169 29.0092 152.169 29.8487 152.169 30.6883H152.119H152.07C151.751 29.8487 151.751 29.0134 152.07 28.1738Z" fill="#FBF9F4"/>
<path d="M70.7962 21.5615C70.6142 21.7559 70.6845 21.9751 70.6845 22.1736C70.6845 24.9114 70.6804 27.6533 70.6969 30.391C70.701 30.817 70.5977 31.0238 70.1221 31.0072C69.3611 30.9783 68.596 30.9824 67.8309 31.0072C67.4298 31.0196 67.285 30.8666 67.285 30.4779C67.285 28.7906 67.2726 27.0991 67.2685 25.4118C67.2602 22.43 67.2561 19.4441 67.252 16.4623C67.252 15.6228 67.2685 15.6104 68.1163 15.6104C68.5753 15.6104 69.0385 15.6517 69.4893 15.6021C70.1965 15.5194 70.6431 15.8006 71.065 16.3631C73.0625 19.0471 75.1013 21.7021 77.1278 24.3696C77.2146 24.4854 77.2808 24.6343 77.5083 24.6632C77.5207 24.4813 77.5372 24.2993 77.5372 24.1215C77.5372 21.516 77.5413 18.9106 77.5165 16.3052C77.5124 15.8006 77.6365 15.5732 78.1906 15.6062C78.935 15.6476 79.6794 15.6311 80.4239 15.6104C80.8002 15.6021 80.978 15.6972 80.978 16.1191C80.9697 20.9122 80.9697 25.7054 80.978 30.4986C80.978 30.8666 80.8539 31.0362 80.4776 31.0031C80.4404 30.999 80.4032 31.0031 80.3618 31.0031C78.0293 31.0445 78.0376 31.0362 76.5571 29.0842C74.696 26.6276 72.8185 24.1835 70.945 21.7393C70.912 21.6732 70.8541 21.6236 70.7962 21.5615Z" fill="#FBC02E"/>
<path d="M115.022 30.8005C114.298 29.8742 113.57 28.9561 112.855 28.0214C111.246 25.9205 109.646 23.8155 108.037 21.7146C108.004 21.6732 107.946 21.6484 107.888 21.6071C107.714 21.7808 107.797 22 107.793 22.1943C107.789 24.8949 107.781 27.5996 107.805 30.3001C107.809 30.8171 107.669 31.028 107.131 31.0032C106.407 30.9701 105.68 30.9825 104.952 30.999C104.522 31.0114 104.34 30.8708 104.344 30.4076C104.36 25.6517 104.356 20.8916 104.352 16.1357C104.352 15.7469 104.464 15.5608 104.873 15.6022C105.063 15.6229 105.262 15.6394 105.444 15.6022C107.049 15.2672 108.008 16.0323 108.901 17.3019C110.671 19.8205 112.607 22.2274 114.493 24.7047C114.621 24.5723 114.662 24.4358 114.654 24.2952C114.505 21.5947 114.633 18.8941 114.588 16.1977C114.579 15.7469 114.774 15.5898 115.204 15.6022C115.928 15.6187 116.656 15.6311 117.383 15.598C117.88 15.5732 118.053 15.7387 118.049 16.2432C118.033 20.2754 118.037 24.3118 118.041 28.344C118.041 28.894 118.078 29.4482 118.074 29.9982C118.074 30.3125 118.14 30.6434 117.904 30.9205C117.081 31.0239 116.258 30.9411 115.431 30.966C115.266 30.9742 115.158 30.8543 115.022 30.8005Z" fill="#FBC02E"/>
<path d="M152.069 28.1741C152.069 29.0136 152.069 29.849 152.069 30.6885C152.007 30.9904 151.771 30.9987 151.536 30.9946C147.967 30.9946 144.393 30.9904 140.824 30.9946C140.461 30.9946 140.266 30.8829 140.266 30.4652C140.274 25.7506 140.283 21.0319 140.258 16.3173C140.254 15.7549 140.427 15.5936 140.973 15.5977C144.393 15.6143 147.81 15.6184 151.23 15.5977C151.788 15.5936 151.982 15.7714 151.941 16.3215C151.9 16.8508 151.933 17.3843 151.929 17.9178C151.929 18.6622 151.9 18.6994 151.163 18.6994C148.872 18.6994 146.581 18.7118 144.29 18.6829C143.823 18.6788 143.699 18.7946 143.724 19.2536C143.761 19.8781 143.732 20.5067 143.699 21.1353C143.678 21.5489 143.806 21.6936 144.249 21.6895C146.255 21.6647 148.26 21.6936 150.262 21.6647C150.783 21.6564 150.977 21.8011 150.936 22.3388C150.891 22.926 150.895 23.5216 150.936 24.1047C150.973 24.6216 150.816 24.7995 150.27 24.7912C148.322 24.7581 146.374 24.7953 144.427 24.7664C143.881 24.7581 143.666 24.9235 143.703 25.4736C143.74 26.0815 143.728 26.6894 143.707 27.2974C143.695 27.715 143.856 27.8515 144.282 27.8474C146.668 27.8267 149.054 27.8391 151.445 27.835C151.714 27.8433 152.003 27.7978 152.069 28.1741Z" fill="#FBC02E"/>
<path d="M122.239 23.3232C122.09 19.8121 124.571 16.363 128.165 15.5896C130.932 14.9941 133.558 15.3208 135.808 17.2315C136.362 17.7029 136.362 17.7732 135.878 18.315C135.435 18.8113 134.981 19.2993 134.567 19.8245C134.282 20.1843 134.054 20.2463 133.682 19.9279C133.268 19.5681 132.801 19.2662 132.297 19.0263C129.306 17.6037 126.039 19.5515 125.878 22.8559C125.816 24.171 126.101 25.362 126.92 26.4373C128.095 27.9799 130.543 28.5506 132.507 27.4795C132.995 27.2148 133.446 26.8964 133.864 26.5324C134.129 26.3008 134.339 26.2967 134.592 26.5614C135.076 27.0742 135.572 27.5746 136.081 28.0626C136.391 28.3562 136.354 28.5837 136.06 28.869C134.637 30.2751 132.946 31.094 130.936 31.2139C127.859 31.3959 125.299 30.3868 123.529 27.7938C122.615 26.4456 122.148 24.9237 122.239 23.3232Z" fill="#FBC02E"/>
<path d="M16.5612 25.4394C16.7556 25.4932 16.892 25.6214 17.0285 25.7579C18.5628 27.2922 20.1178 28.8058 21.6273 30.3691C22.0285 30.7826 22.2476 30.7909 22.6447 30.3815C24.1417 28.843 25.6802 27.3377 27.198 25.8158C27.7273 25.2864 27.7563 25.2781 28.2856 25.8034C29.0548 26.5685 29.8158 27.3418 30.5933 28.0945C30.9572 28.446 30.9655 28.7355 30.5974 29.0994C27.9051 31.7669 25.2253 34.4426 22.5495 37.1266C22.2394 37.4368 22.0285 37.4575 21.7059 37.1349C19.0053 34.422 16.2924 31.7214 13.5753 29.025C13.2816 28.7355 13.2651 28.5039 13.5629 28.2103C14.4231 27.3749 15.2709 26.5271 16.1228 25.6793C16.251 25.5594 16.3875 25.4642 16.5612 25.4394Z" fill="#FBC02E"/>
<path d="M27.4346 20.5235C25.8093 18.9189 24.1757 17.3226 22.5711 15.6973C22.203 15.3251 22.0211 15.3788 21.6737 15.7345C20.0939 17.3515 18.4727 18.9313 16.8722 20.5277C16.6406 20.7593 16.4504 20.8048 16.1981 20.5525C15.3297 19.6716 14.4529 18.8031 13.5762 17.9305C13.2991 17.6534 13.2701 17.426 13.5803 17.1199C16.2974 14.4318 19.0062 11.7312 21.7109 9.02655C22.0128 8.72465 22.2609 8.69984 22.5794 9.01415C25.2675 11.7106 27.9639 14.3987 30.6686 17.0786C30.9581 17.3639 30.9953 17.6121 30.7017 17.8974C29.8498 18.7369 28.9937 19.5806 28.1418 20.4201C27.9102 20.478 27.6951 20.6559 27.4346 20.5235Z" fill="#FBC02E"/>
<path d="M62.2844 23.2651C62.2844 25.6017 62.2678 27.9425 62.2968 30.2791C62.3009 30.825 62.1355 31.0359 61.5772 31.007C60.9114 30.9739 60.2414 30.9987 59.5756 30.9987C58.8394 30.9987 58.7939 30.9532 58.7981 30.2336C58.8022 28.2361 58.8105 26.2428 58.8146 24.2453C58.8188 21.6026 58.827 18.96 58.8022 16.3173C58.7981 15.7838 58.9428 15.5605 59.5094 15.5977C60.1918 15.6391 60.8824 15.6349 61.5689 15.5977C62.1107 15.5688 62.3092 15.7383 62.3009 16.3049C62.272 18.625 62.2885 20.9409 62.2885 23.261C62.2844 23.2651 62.2844 23.2651 62.2844 23.2651Z" fill="#FBC02E"/>
<path d="M25.317 23.0446C25.379 23.239 25.2466 23.3506 25.1267 23.4747C24.2334 24.3597 23.336 25.2406 22.4551 26.1339C22.2235 26.3696 22.0333 26.3489 21.8224 26.1422C20.8919 25.2158 19.9613 24.2853 19.0267 23.363C18.8199 23.1604 18.8199 22.9826 19.0226 22.7799C19.9572 21.8535 20.8836 20.9272 21.8141 20.0008C22.025 19.7899 22.2318 19.7651 22.4551 19.9925C23.3567 20.8941 24.2624 21.7956 25.1681 22.6972C25.2673 22.7882 25.3666 22.8792 25.317 23.0446Z" fill="#FBC02E"/>
<path d="M10.5855 25.9987C9.73353 25.1592 8.87746 24.3238 8.02553 23.4843C7.75258 23.2155 7.7319 22.9508 8.02553 22.6654C8.8816 21.8259 9.72939 20.9822 10.5689 20.1262C10.8543 19.8367 11.0735 19.7995 11.3754 20.1096C12.2108 20.9698 13.0627 21.8135 13.9146 22.653C14.2041 22.9343 14.2248 23.1948 13.9353 23.4801C13.0834 24.3197 12.2314 25.1592 11.3754 25.9987C11.1107 26.1766 10.8501 26.1683 10.5855 25.9987Z" fill="#FBC02E"/>
<path d="M33.0507 26.1171C32.1657 25.2528 31.2807 24.3884 30.3998 23.5199C30.1103 23.2346 30.1351 22.9161 30.3998 22.6432C31.2517 21.7747 32.1244 20.9228 32.9804 20.0584C33.2162 19.8227 33.3981 19.7979 33.6463 20.0502C34.5478 20.9765 35.4618 21.8905 36.3758 22.8086C36.4047 22.9699 36.4585 23.1271 36.3964 23.2925C35.4411 24.2395 34.4817 25.1866 33.5263 26.1336C33.365 26.1874 33.2079 26.1419 33.0507 26.1171Z" fill="#FBC02E"/>
<path d="M97.2598 30.9084C98.1572 30.9125 99.0546 30.8836 99.9479 30.929C100.424 30.9539 100.589 30.7719 100.581 30.3418C100.812 30.929 100.758 31.0242 100.18 31.0283C99.3607 31.0366 98.5418 31.0366 97.7271 31.0324C97.5658 31.0283 97.3797 31.0903 97.2598 30.9084Z" fill="#F7D685"/>
<path d="M115.021 30.8008C115.977 31.0117 116.945 30.8587 117.904 30.9249C117.015 31.1068 116.122 30.9952 115.228 30.9786C115.158 30.9745 115.088 30.8628 115.021 30.8008Z" fill="#F2C454"/>
<path d="M10.585 25.9983C10.8455 25.9983 11.1102 25.9983 11.3707 25.9941C11.1102 26.4242 10.8496 26.4201 10.585 25.9983Z" fill="#F1CA6C"/>
<path d="M27.4331 20.5238C27.6688 20.4866 27.8839 20.2963 28.1403 20.4204C27.9335 20.6768 27.735 20.9497 27.4331 20.5238Z" fill="#F4C34C"/>
<path d="M33.0503 26.1173C33.2116 25.9973 33.3687 26.0139 33.5259 26.1338C33.3563 26.3819 33.2033 26.3034 33.0503 26.1173Z" fill="#F2D17D"/>
<path d="M36.3915 23.2944C36.3708 23.1331 36.2633 22.976 36.3708 22.8105C36.561 22.9636 36.5569 23.1248 36.3915 23.2944Z" fill="#F3C860"/>
<path fill-rule="evenodd" clip-rule="evenodd" d="M41.5699 23.2525C41.5699 22.4914 41.5695 21.7308 41.569 20.9703C41.5681 19.4497 41.5672 17.9298 41.5699 16.4081C41.5699 15.6388 41.6072 15.6099 42.3805 15.6099C43.0067 15.6099 43.6326 15.6083 44.2584 15.6067C45.8849 15.6026 47.5104 15.5984 49.1381 15.6223C50.6104 15.643 51.9627 16.0152 52.9718 17.2021C54.3283 18.7902 54.1174 21.2715 52.4673 22.5453C52.0537 22.8679 52.0826 22.9878 52.521 23.2194C54.1918 24.1044 54.8866 25.403 54.6881 27.1772C54.4937 28.8893 53.373 30.0928 51.6236 30.6056C50.3652 30.9725 49.0841 30.9814 47.8033 30.9902C47.6403 30.9914 47.4773 30.9925 47.3143 30.9944C46.1794 31.0059 45.0424 31.0033 43.9063 31.0007H43.9058C43.4192 30.9996 42.9328 30.9985 42.4467 30.9985C41.5865 30.9985 41.5658 30.9819 41.5658 30.0969C41.563 28.5753 41.564 27.0556 41.5649 25.5352L41.5649 25.5347C41.5653 24.7743 41.5658 24.0136 41.5658 23.2525H41.5699ZM47.2094 24.6588C47.3978 24.6596 47.5864 24.6574 47.775 24.6553C48.5588 24.6463 49.3417 24.6374 50.1084 24.8408C50.7784 25.0144 51.2374 25.5852 51.2623 26.2344C51.2871 26.9251 50.8735 27.4751 50.1705 27.7233C49.8024 27.8556 49.4219 27.8928 49.0456 27.9011C48.3 27.9188 47.5544 27.9195 46.8089 27.9202C46.3344 27.9206 45.86 27.9211 45.3856 27.9259C45.0837 27.93 44.9844 27.7977 44.9844 27.5165L44.9863 27.1686C44.9904 26.4689 44.9945 25.7671 44.9803 25.0682C44.972 24.7291 45.1374 24.6505 45.4352 24.6547C45.8576 24.6635 46.28 24.6618 46.7024 24.6601C46.8714 24.6595 47.0404 24.6588 47.2094 24.6588ZM47.652 18.6982C47.472 18.7009 47.292 18.7036 47.112 18.7036V18.6829C46.949 18.6829 46.7857 18.6836 46.6223 18.6843C46.2133 18.686 45.8035 18.6876 45.3957 18.6788C45.1103 18.6705 44.978 18.7491 44.9821 19.0593C44.9945 19.8358 44.9904 20.6123 44.9863 21.393L44.9863 21.3959C44.9863 21.6068 45.0111 21.7805 45.284 21.7722C45.6999 21.7599 46.1168 21.7675 46.5336 21.7751C47.3767 21.7905 48.2199 21.8059 49.0557 21.6564C49.9697 21.491 50.4039 20.9492 50.3667 20.0849C50.3336 19.3363 49.7463 18.7656 48.8861 18.7119C48.4747 18.686 48.0633 18.6921 47.652 18.6982Z" fill="#FBC02E"/>
<path fill-rule="evenodd" clip-rule="evenodd" d="M96.409 29.0256C96.6532 29.6702 96.8972 30.3141 97.2596 30.9074C97.8493 31 98.4424 30.9877 99.0335 30.9755C99.3668 30.9686 99.6994 30.9617 100.03 30.9736C100.634 30.9901 100.634 30.9736 100.576 30.345C100.039 29.0919 99.5052 27.8347 98.9717 26.5774C98.821 26.224 98.6702 25.8707 98.5195 25.5174C97.1567 22.323 95.795 19.1311 94.4433 15.9324C94.2985 15.5933 94.1041 15.4858 93.7526 15.4982C93.0496 15.5188 92.3382 15.5312 91.6352 15.4982C91.172 15.4734 90.9693 15.6719 90.7998 16.0813C89.9822 18.0363 89.1462 19.9861 88.3106 21.9348C88.098 22.4305 87.8855 22.9263 87.6733 23.422L87.6684 23.4334C86.7064 25.6793 85.7445 27.9253 84.7825 30.1754C84.5219 30.7834 84.6501 30.986 85.3036 30.9943C85.5488 30.9972 85.7935 30.9944 86.0379 30.9916C86.4818 30.9865 86.9245 30.9815 87.3672 31.0108C87.8883 31.0439 88.1282 30.8123 88.2936 30.3657C88.4613 29.9199 88.6418 29.4806 88.8223 29.0412C88.9667 28.6898 89.1111 28.3383 89.2489 27.9836C89.3565 27.7065 89.4929 27.5865 89.8238 27.5659C90.7977 27.5087 91.7716 27.5205 92.7449 27.5323C93.6025 27.5427 94.4596 27.553 95.3159 27.5162C95.6715 27.4997 95.8494 27.661 95.9941 27.9877C96.145 28.3286 96.277 28.6772 96.409 29.0256ZM93.3417 21.5168C93.1186 20.972 92.8946 20.4249 92.6693 19.8735C92.433 20.0795 92.3543 20.3277 92.2787 20.566C92.2511 20.653 92.2239 20.7387 92.1896 20.8206C91.9127 21.4692 91.6438 22.1225 91.375 22.7757C91.2101 23.1762 91.0452 23.5768 90.8786 23.9761C90.7504 24.2862 90.738 24.4558 91.1764 24.4434C91.877 24.423 92.5776 24.4272 93.2783 24.4315C93.5702 24.4333 93.8621 24.4351 94.154 24.4351C94.1588 24.4351 94.1636 24.4351 94.1685 24.4351C94.3391 24.4354 94.5354 24.4356 94.4228 24.1622C94.0644 23.2814 93.7043 22.4022 93.3417 21.5168Z" fill="#FBC02E"/>
</svg>
