<svg width="126" height="45" viewBox="0 0 126 45" fill="none" xmlns="http://www.w3.org/2000/svg">
<path d="M19.2977 22.0479L18.9938 21.7428C18.7645 21.5138 18.37 21.676 18.37 22.0009V26.3573C18.37 26.5587 18.5349 26.7222 18.7369 26.7222H23.0954C23.4202 26.7222 23.5843 26.3286 23.353 26.0993C23.2847 26.0309 23.2464 25.9382 23.2464 25.8415C23.2464 25.7449 23.2847 25.6521 23.353 25.5837L27.9892 20.9364C28.1315 20.7943 28.1315 20.5636 27.9892 20.4205L27.5669 19.9998C27.3374 19.7708 27.501 19.3772 27.8251 19.3772H32.1812C32.3826 19.3772 32.5473 19.5407 32.5473 19.7421V24.0987C32.5473 24.4233 32.1518 24.5862 31.9224 24.3568L31.6282 24.0633C31.484 23.9169 31.2545 23.9169 31.113 24.0633L23.2973 31.8732C23.1552 32.0148 22.9244 32.0148 22.7804 31.8732L13.2181 22.3134C13.1839 22.2796 13.1568 22.2393 13.1383 22.1949C13.1198 22.1504 13.1103 22.1028 13.1103 22.0547C13.1103 22.0066 13.1198 21.959 13.1383 21.9146C13.1568 21.8701 13.1839 21.8298 13.2181 21.796L26.4559 8.56272C26.5975 8.42032 26.5975 8.18792 26.4559 8.04601L23.3432 4.93446C23.2744 4.86634 23.1815 4.82812 23.0847 4.82812C22.9879 4.82812 22.8951 4.86634 22.8263 4.93446L5.69051 22.0666C5.54848 22.2091 5.54848 22.4415 5.69051 22.5833L22.8263 39.7136C22.9684 39.8552 23.2016 39.8552 23.3432 39.7136L40.4783 22.5833C40.6199 22.4409 40.6199 22.2097 40.4783 22.0678L30.3971 11.9897C30.2562 11.8479 30.0243 11.8479 29.8814 11.9897L19.8153 22.048C19.7814 22.0822 19.7411 22.1093 19.6967 22.1278C19.6523 22.1463 19.6047 22.1558 19.5566 22.1558C19.5084 22.1558 19.4608 22.1463 19.4164 22.1278C19.372 22.1093 19.3317 22.0822 19.2978 22.048L19.2977 22.0479ZM98.397 26.3824C97.9552 26.3824 97.574 26.5406 97.2546 26.8588C96.9391 27.1773 96.7781 27.5533 96.7781 27.9886C96.7781 28.6523 97.1148 29.1685 97.7836 29.5374C98.5172 29.7376 99.1068 29.6073 99.5506 29.1534C99.8713 28.833 100.029 28.4488 100.029 28.0011C100.029 27.548 99.8713 27.1693 99.5506 26.859C99.2324 26.5427 98.8501 26.3847 98.396 26.3847L98.397 26.3828V26.3824ZM72.3575 14.0688H71.1493C70.6275 14.0688 70.2031 14.4899 70.2031 15.0116V15.6852C68.9179 14.3491 67.4627 13.6807 65.8375 13.6807C63.9606 13.6807 62.3945 14.3789 61.1458 15.7715C59.8935 17.1642 59.2698 18.9049 59.2698 20.9949C59.2698 23.1207 59.8935 24.8954 61.1421 26.3178C62.4046 27.7111 63.9966 28.4076 65.9249 28.4076C67.4498 28.4076 68.8769 27.7851 70.2032 26.5434V27.8754C70.2032 28.5224 70.7293 29.0483 71.3756 29.0483H73.4384V15.1482C73.4384 14.5536 72.9535 14.0688 72.3575 14.0688ZM69.3042 24.2987C68.5691 25.1194 67.6066 25.5291 66.4127 25.5291C65.2945 25.5291 64.3681 25.1049 63.6355 24.2565C62.9181 23.4184 62.5604 22.3278 62.5604 20.9928C62.5604 19.744 62.9285 18.6922 63.6629 17.8442C64.4068 17.0039 65.3327 16.5861 66.4402 16.5861C67.6143 16.5861 68.5673 17.0001 69.3024 17.8338C70.0379 18.6821 70.4055 19.7584 70.4055 21.0658C70.4055 22.3733 70.0379 23.4495 69.3024 24.2998L69.3045 24.2988L69.3042 24.2987ZM59.2687 16.4207V15.0425C59.2687 14.5045 58.8332 14.0711 58.2947 14.0711H57.0215C56.4851 14.0711 56.0486 14.5025 56.0486 15.0425V15.6445C54.8841 14.3362 53.4241 13.6809 51.6682 13.6809C49.6642 13.6809 48.0495 14.4367 46.8289 15.9422C45.6928 17.3616 45.1252 19.09 45.1252 21.1224C45.1252 23.2113 45.7373 24.9542 46.9594 26.3457C48.1715 27.7229 49.7265 28.4058 51.626 28.4058C53.2941 28.4058 54.7696 27.7548 56.0486 26.4473V28.3936C56.0486 31.2855 54.8704 32.7316 52.5139 32.7316C51.2345 32.7316 50.2627 32.2962 49.5949 31.4274C49.4245 31.2075 49.2831 30.9324 49.1707 30.6037C49.0128 30.1436 48.5752 29.8376 48.0902 29.8376H46.8697C46.2542 29.8376 45.7967 30.4229 45.9524 31.0186C46.2862 32.2858 46.9308 33.3169 47.8905 34.1149C49.0927 35.1174 50.6255 35.6197 52.4851 35.6197C54.6892 35.6197 56.4217 34.8926 57.6823 33.4445C58.3502 32.6907 58.797 31.789 59.0267 30.7394C59.1032 30.3595 59.1632 29.917 59.2054 29.4147C59.2474 28.9155 59.2683 28.3362 59.2683 27.677V25.6518C58.367 24.3526 57.9134 22.8008 57.9134 20.9934C57.9134 19.2176 58.3661 17.6967 59.2683 16.4222V16.4211L59.2687 16.4207ZM55.1892 24.1888C54.4738 25.0823 53.5018 25.529 52.2691 25.529C51.0379 25.529 50.0743 25.0851 49.3762 24.197C48.7382 23.3878 48.4186 22.3463 48.4186 21.079C48.4186 19.7901 48.7381 18.7406 49.3762 17.9304C50.0842 17.0255 51.0467 16.5728 52.2691 16.5728C53.4136 16.5728 54.3541 16.9875 55.088 17.8164C55.8137 18.6267 56.1778 19.7094 56.1778 21.066C56.1778 22.3343 55.8475 23.3736 55.189 24.187V24.1891L55.1892 24.1888ZM86.0434 14.0791V14.0688H79.3637V9.98033C79.3637 9.45459 78.9385 9.02835 78.4114 9.02835H77.1075C76.5754 9.02835 76.1438 9.45969 76.1438 9.99173V14.0689H74.7685V17.0718H76.142V29.0465H77.9787C78.1604 29.0469 78.3404 29.0115 78.5084 28.9421C78.6763 28.8728 78.8289 28.771 78.9574 28.6425C79.0859 28.5141 79.1878 28.3615 79.2572 28.1936C79.3266 28.0257 79.3621 27.8458 79.3617 27.6641V17.0738H82.6646C82.9236 16.5766 83.2435 16.1136 83.6169 15.6955C84.3011 14.9499 85.1105 14.4097 86.0413 14.0791H86.0435H86.0434ZM102.478 9.02828C101.907 9.02828 101.416 9.23374 101.005 9.64451C100.596 10.0542 100.389 10.542 100.389 11.1038C100.389 11.6966 100.594 12.1935 101.005 12.6075C101.416 13.0171 101.913 13.2216 102.495 13.2216C103.077 13.2216 103.567 13.0172 103.967 12.6063C104.377 12.1935 104.585 11.7007 104.585 11.1183C104.585 10.5379 104.379 10.0451 103.968 9.64667C103.556 9.23388 103.06 9.02828 102.478 9.02828ZM103.131 15.6462H101.963C101.364 15.6462 100.876 16.1311 100.876 16.7327V26.9554C101.122 27.2441 101.239 27.584 101.239 27.9793C101.239 28.3746 101.122 28.7186 100.876 29.0094V29.5847H102.949C103.584 29.5847 104.097 29.0701 104.097 28.4342V16.6096C104.097 16.0775 103.664 15.6462 103.13 15.6462H103.131ZM118.268 17.6203C116.818 16.1998 115.052 15.4891 112.971 15.4891C110.9 15.4891 109.143 16.1937 107.703 17.6079C106.263 19.0189 105.542 20.732 105.542 22.7449C105.542 24.8811 106.246 26.6558 107.66 28.0687C109.074 29.4985 110.826 30.2142 112.913 30.2142C115.022 30.2142 116.802 29.5137 118.254 28.1108C119.692 26.6966 120.415 24.9487 120.415 22.8589C120.415 20.7874 119.699 19.0414 118.268 17.618V17.6203ZM115.99 26.1216C115.238 26.9339 114.231 27.3355 112.972 27.3355C111.719 27.3355 110.713 26.9278 109.949 26.1051C109.205 25.296 108.832 24.1909 108.832 22.8004C108.832 21.5043 109.216 20.4444 109.98 19.6248C110.742 18.8053 111.739 18.3934 112.971 18.3934C114.22 18.3934 115.227 18.8053 115.99 19.6248C116.744 20.4341 117.122 21.5187 117.122 22.8702C117.122 24.2279 116.744 25.3082 115.99 26.1195V26.1216Z" fill="#DE5959"/>
<path d="M87.2431 25.5581C86.5792 24.8863 86.2086 23.9703 86.1231 22.8262H95.3546C95.7759 22.8262 96.1232 22.4894 96.1293 22.0694C96.1293 19.7658 95.5374 17.9706 94.355 16.6723C93.1604 15.3662 91.537 14.7129 89.4865 14.7129C87.4565 14.7129 85.8232 15.3866 84.5926 16.73C83.3701 18.0958 82.7598 19.8786 82.7598 22.0826C82.7598 24.3051 83.3906 26.0899 84.648 27.4334C85.5273 28.3679 86.6051 28.9737 87.884 29.2562C88.4204 29.3824 88.9772 29.4481 89.5391 29.4398C91.833 29.4872 93.827 29.5343 96.12 29.5816L96.1233 29.2458C95.8426 28.9409 95.7019 28.5732 95.7019 28.1438C95.7019 27.7269 95.8489 27.3685 96.1351 27.0584L96.1373 26.6506C94.3272 26.6054 89.9448 26.5623 89.7702 26.5623C88.7429 26.5623 87.8983 26.2306 87.2431 25.56V25.5581H87.2431ZM86.795 19.1209C86.9976 18.8066 87.237 18.5375 87.5195 18.3137C87.8019 18.0867 88.1123 17.9172 88.4575 17.7981C88.8005 17.679 89.1683 17.6193 89.5605 17.6193C91.2764 17.6193 92.3591 18.4769 92.8111 20.1931H86.3381C86.4437 19.7935 86.5958 19.4361 86.795 19.1208V19.1209Z" fill="#DE5959"/>
</svg>
