<svg width="126" height="48" viewBox="0 0 126 48" fill="none" xmlns="http://www.w3.org/2000/svg">
<path d="M38.1032 25.4399C38.1032 22.2859 38.119 19.1359 38.0875 15.982C38.0835 15.4071 38.2568 15.2535 38.8002 15.2929C39.4223 15.3402 40.0523 15.3008 40.6783 15.3047C41.6037 15.3126 41.9856 15.6827 41.9895 16.6041C41.9974 18.7264 42.0092 20.8527 41.9777 22.975C41.9698 23.5065 42.1155 23.6522 42.6471 23.6443C44.9742 23.6168 47.3012 23.6128 49.6283 23.6443C50.1835 23.6522 50.2858 23.4672 50.2819 22.9632C50.2583 20.6164 50.2858 18.2697 50.2583 15.9229C50.2543 15.4229 50.3764 15.2535 50.8883 15.2969C51.4671 15.3441 52.0498 15.3087 52.6326 15.3087C53.8493 15.3087 54.1603 15.6276 54.1603 16.8758C54.1603 18.6634 54.1603 20.451 54.1603 22.2426C54.1603 26.7156 54.1485 31.1847 54.1722 35.6577C54.1761 36.201 54.0107 36.3507 53.4949 36.3152C52.8728 36.2719 52.2428 36.3113 51.6167 36.3034C50.6323 36.2955 50.2819 35.949 50.2819 34.9725C50.278 32.5352 50.2662 30.0979 50.2937 27.6606C50.2977 27.1487 50.1874 26.9794 49.6401 26.9873C47.313 27.0188 44.986 27.0148 42.6589 26.9912C42.1431 26.9873 41.9738 27.1054 41.9817 27.6527C42.0132 30.3342 41.9856 33.0195 42.0053 35.701C42.0092 36.1617 41.899 36.3349 41.4147 36.3034C40.7689 36.2601 40.1192 36.2955 39.4695 36.2916C38.4773 36.2837 38.1032 35.9136 38.1032 34.9017C38.0993 31.7438 38.1032 28.5899 38.1032 25.4399Z" fill="#1B2143"/>
<path d="M22.7595 8.02539C23.0902 8.17895 23.3344 8.47033 23.5627 8.75777C25.5709 11.3014 26.4607 14.2191 26.3702 17.4321C26.3426 18.4795 25.8544 19.4126 25.3267 20.3025C24.7007 21.3617 23.9407 22.3303 23.1926 23.3068C22.4602 24.2636 21.7515 25.2401 21.0782 26.2442C19.1724 29.091 19.1803 32.0126 20.6765 35.0051C20.9758 35.6036 21.3144 36.1825 21.6215 36.781C21.7082 36.9503 21.8657 37.1432 21.7121 37.3361C21.5625 37.5251 21.342 37.4267 21.149 37.3834C18.6015 36.7928 16.7587 35.2375 15.3806 33.0994C12.7897 29.0713 13.3213 24.3896 16.7587 20.6018C17.4045 19.8891 18.0699 19.1961 18.7314 18.4952C21.2711 15.802 22.4681 12.5614 22.6295 8.90345C22.6414 8.6357 22.6571 8.36795 22.6729 8.1002C22.6729 8.08445 22.7004 8.07264 22.7595 8.02539Z" fill="#1B2143"/>
<path d="M66.6894 25.8059C66.6894 24.2191 66.7012 22.6323 66.6815 21.0455C66.6776 20.6518 66.7603 20.4824 67.1934 20.5061C67.9297 20.5415 68.67 20.5021 69.4063 20.5218C70.1662 20.5415 70.5679 20.9353 70.5679 21.6913C70.5757 24.7743 70.6072 27.8613 70.56 30.9444C70.5127 33.9723 67.9573 36.4726 64.8349 36.5986C63.7678 36.6419 62.6889 36.6931 61.6297 36.4254C58.9759 35.756 57.1331 33.4565 57.1213 30.7199C57.1055 27.5227 57.1292 24.3294 57.1055 21.1321C57.1016 20.6203 57.2473 20.4746 57.7434 20.51C58.3655 20.5533 58.9955 20.5179 59.6216 20.5218C60.6257 20.5297 60.9958 20.8919 60.9958 21.9039C61.0037 24.6759 60.9919 27.4479 60.9997 30.2159C61.0037 31.6649 61.8266 32.732 63.1654 33.0746C65.0042 33.5431 66.6815 32.2595 66.6894 30.3734C66.6973 28.8457 66.6894 27.3258 66.6894 25.8059Z" fill="#1B2143"/>
<path d="M23.6808 31.9256C23.7202 29.63 24.6376 27.6337 25.811 25.7319C26.7521 24.212 27.7246 22.7118 28.3704 21.0305C28.4176 20.9045 28.4727 20.7825 28.5121 20.6525C28.7956 19.743 28.7917 19.743 29.4374 20.4163C33.0836 24.216 33.4025 29.9568 30.1816 33.9298C29.528 34.737 28.7523 35.4103 27.8546 35.93C27.2876 36.2568 26.7442 36.6073 26.378 37.1625C26.1969 37.4341 26.0512 37.4027 25.8622 37.1821C24.6652 35.7607 23.6257 34.1857 23.6808 31.9256Z" fill="#2CA5DF"/>
<path d="M111.845 29.068C111.845 31.2337 111.822 33.4032 111.861 35.5688C111.873 36.1831 111.676 36.3406 111.101 36.3012C110.455 36.254 109.806 36.3012 109.156 36.2855C108.396 36.2658 108.018 35.9272 108.018 35.183C108.006 30.647 108.014 26.111 108.002 21.5789C108.002 21.197 108.136 21.071 108.51 21.0828C109.227 21.1064 109.94 21.0788 110.656 21.0907C111.456 21.1064 111.841 21.4923 111.841 22.2955C111.849 24.5557 111.845 26.8118 111.845 29.068Z" fill="#2CA5DF"/>
<path d="M109.916 15.293C111.128 15.289 112.089 16.2419 112.081 17.4429C112.073 18.6477 111.101 19.6124 109.908 19.6006C108.738 19.5888 107.793 18.6399 107.778 17.4665C107.762 16.2537 108.703 15.2969 109.916 15.293Z" fill="#2CA5DF"/>
<path fill-rule="evenodd" clip-rule="evenodd" d="M90.5905 21.2429C90.5898 21.8355 90.589 22.428 90.589 23.0206C90.5906 23.9247 90.5897 24.8282 90.5887 25.7316C90.5873 27.0864 90.5859 28.441 90.593 29.797C90.6009 31.1003 90.971 32.3052 91.6915 33.3998C93.2941 35.8293 96.5071 37.0814 99.535 36.4593C102.705 35.8096 104.878 33.6597 105.292 30.616C105.428 29.5935 105.394 28.538 105.36 27.4948C105.357 27.3971 105.354 27.2996 105.351 27.2022C105.28 25.009 104.355 23.2253 102.559 21.9575C100.224 20.3037 97.6805 20.1147 95.0266 21.0715C94.5895 21.229 94.4557 21.1936 94.4635 20.6935C94.4911 19.3075 94.4793 17.9215 94.4675 16.5355C94.4596 15.752 94.0383 15.3385 93.2626 15.3228C92.9854 15.3181 92.7082 15.3209 92.431 15.3237C92.0152 15.328 91.5994 15.3322 91.1836 15.311C90.715 15.2873 90.5733 15.437 90.5772 15.9095C90.5949 17.6873 90.5927 19.4651 90.5905 21.2429ZM101.48 29.0174C101.479 28.8686 101.478 28.72 101.478 28.5718C101.478 28.4157 101.479 28.2595 101.48 28.1033C101.481 27.7909 101.483 27.4785 101.478 27.1662C101.442 25.3037 100.056 24.028 98.0444 24.0083C95.9969 23.9886 94.5479 25.2486 94.4967 27.1268C94.4731 28.0639 94.4731 29.001 94.4967 29.9382C94.544 31.8045 96.0323 33.1512 98.005 33.1354C100.005 33.1197 101.446 31.7809 101.478 29.9106C101.483 29.6138 101.481 29.3153 101.48 29.0174Z" fill="#2CA5DF"/>
<path fill-rule="evenodd" clip-rule="evenodd" d="M74.9059 22.9419C73.4333 24.5169 73.075 26.4699 73.2128 28.5843C73.2128 28.7113 73.2105 28.8421 73.2082 28.9752C73.2031 29.2714 73.1977 29.5795 73.2167 29.8837C73.386 32.9786 75.2209 35.3214 78.1858 36.2428C81.9265 37.4004 85.99 35.7348 87.4075 32.3958C88.2855 30.3287 88.191 28.1237 87.7894 25.9974C87.25 23.1545 85.3285 21.426 82.5683 20.7605C79.6506 20.0557 77.0125 20.6975 74.9059 22.9419ZM77.1006 28.0891C77.1021 28.2406 77.1036 28.3922 77.1036 28.5437C77.105 28.7228 77.103 28.9024 77.101 29.0821C77.0973 29.416 77.0936 29.7505 77.1115 30.0833C77.2021 31.8512 78.6196 33.0994 80.545 33.1309C82.4153 33.1585 83.9273 31.9496 84.0454 30.2329C84.1242 29.1225 84.1242 28.0003 84.0494 26.89C83.9312 25.1299 82.4468 23.9605 80.4977 23.9959C78.5605 24.0313 77.1824 25.2795 77.1076 27.0711C77.0939 27.409 77.0973 27.7488 77.1006 28.0891Z" fill="#1B2143"/>
</svg>
