<?xml version="1.0" encoding="UTF-8"?>
<svg width="73px" height="24px" viewBox="0 0 73 24" version="1.1" xmlns="http://www.w3.org/2000/svg" xmlns:xlink="http://www.w3.org/1999/xlink">
    <title>EVO</title>
    <g id="页面-1" stroke="none" stroke-width="1" fill="none" fill-rule="evenodd">
        <g id="PC-Footer---EN" transform="translate(-1019.000000, -712.000000)" fill="#858CA6" fill-rule="nonzero">
            <g id="Footer-EN" transform="translate(0.000000, 623.000000)">
                <g id="Business-Support" transform="translate(590.000000, 15.000000)">
                    <g id="Game-Provider" transform="translate(0.000000, 54.000000)">
                        <g id="EVO" transform="translate(429.000000, 20.000000)">
                            <path d="M69.4942107,13.963791 L69.5427893,13.9977366 C69.6014998,14.0326891 69.6559663,14.0757714 69.7044851,14.1264546 C69.8575628,14.2720449 69.9451312,14.4758314 69.9451312,14.6869507 C69.9451312,14.8944703 69.8649158,15.0909906 69.7151805,15.2329812 C69.4050144,15.5350945 68.9083475,15.5314281 68.6021922,15.2220486 L68.5576883,15.1722378 C68.4864496,15.0926287 68.4307711,14.9836124 68.3902899,14.8454736 C68.3535245,14.7071494 68.2913576,14.6343542 68.2004469,14.6343542 C68.0400161,14.6343542 67.2331832,15.0929905 67.0473509,15.3077096 C67.218477,15.5260951 67.357517,15.7700123 67.4631339,16.0247954 C67.540007,16.2359147 67.5761039,16.4543002 67.5761039,16.6800186 C67.583457,17.0585269 67.4811824,17.4298356 67.2806439,17.7538141 C67.0834478,18.0631936 66.7587092,18.3361755 66.3024174,18.5764262 C65.9009395,18.7984782 65.4520008,18.9222033 64.995709,18.9331359 L64.2292511,18.9331359 C63.6853909,18.9331359 63.3276972,18.9877323 63.1488169,19.1005915 C62.9736132,19.2097842 62.8714054,19.4063045 62.8823682,19.6101577 C62.875082,19.7776133 62.9590407,19.937736 63.1013562,20.0287966 C63.2473481,20.1270568 63.5211499,20.174387 63.9226279,20.174387 L65.6563495,20.1379894 C66.5323682,20.1379894 67.1636632,20.2835797 67.54736,20.5747604 C67.9263777,20.8550085 68.1422907,21.3027788 68.1235738,21.7759474 C68.1309269,22.3219779 67.88627,22.8424767 67.4631339,23.1882538 C66.8501548,23.7306179 65.9374375,24 64.7182975,24 C63.7145358,24 62.9663269,23.8143456 62.4808902,23.4467033 C62.0975945,23.1591224 61.9041417,22.8352106 61.9041417,22.4748344 C61.9114948,22.1799873 62.046524,21.9070054 62.2727982,21.7176846 C62.5173882,21.4883665 62.9298289,21.3173112 63.5065106,21.2081184 C63.0429995,21.0952592 62.6962017,20.9314701 62.4626412,20.7130846 C62.2326905,20.5056317 62.1048807,20.2143843 62.1122338,19.9050048 C62.1048807,19.6174239 62.2070884,19.3371758 62.3969315,19.12239 C62.5867077,18.8967383 62.9151896,18.7074842 63.3824442,18.5509612 C63.0210739,18.3653069 62.710841,18.092325 62.4844999,17.7574139 C62.2800844,17.4371018 62.1779435,17.0658597 62.1852297,16.6908846 C62.1779435,16.0721256 62.4552882,15.4860978 62.9371152,15.0965903 C63.4371912,14.6670854 64.0868689,14.4523663 64.886215,14.4523663 C65.2074108,14.4523663 65.5249968,14.4996298 65.8315532,14.5906238 C66.141853,14.6925504 66.4411232,14.8381407 66.7112485,15.0237951 C67.1783693,14.5506264 68.4852114,13.8626721 68.9050052,13.8444733 C69.142309,13.8353628 69.3415477,13.8667125 69.4942107,13.963791 Z M65.2804068,21.2153846 C64.4190273,21.2153846 63.8058477,21.33551 63.4371912,21.5720943 C63.0685347,21.8086786 62.8860447,22.0962595 62.8860447,22.4347704 C62.8786916,22.7405502 63.0393229,23.0244647 63.3020951,23.1845874 C63.6671419,23.4285046 64.1854001,23.5486299 64.8606798,23.5486299 C65.6673122,23.5486299 66.269596,23.4139055 66.6783602,23.1481898 C67.0834478,22.8824741 67.287997,22.5876936 67.287997,22.2600487 C67.287997,22.0671281 67.218477,21.877874 67.0981539,21.7250175 C66.9410655,21.5393631 66.7294975,21.4083051 66.4958702,21.3464426 C66.0980019,21.244516 65.6892378,21.2008522 65.2804068,21.2153846 Z M14.2860237,18.8790728 C15.0306229,18.8790728 15.6329066,19.4796997 15.6329066,20.2222504 C15.6329066,20.9648012 15.0306229,21.5653614 14.2860237,21.5653614 C13.5414245,21.5653614 12.9392076,20.9648012 12.9392076,20.2222504 C12.9392076,19.4796997 13.5414245,18.8790728 14.2860237,18.8790728 Z M30.8774371,11.1895159 L31.1365328,15.3172423 L30.6803079,15.3172423 C30.3299004,14.1305876 29.9174597,13.2715779 29.4393092,12.7400798 C28.8334157,12.0667244 28.1362773,11.7318133 27.3515036,11.7318133 C26.7711454,11.7245471 26.2054264,11.9029353 25.7345622,12.2414462 C25.2564117,12.5836235 24.8913649,13.0931897 24.635879,13.7738779 C24.380393,14.4545661 24.25265,15.1425205 24.25265,16.3764387 C24.25265,17.5739593 24.380393,18.2401152 24.635879,18.917137 C24.8913649,19.5941588 25.2417724,20.0891926 25.690778,20.4095047 C26.1506794,20.7298168 26.7018259,20.8972724 27.2638683,20.8863398 C28.0815303,20.8863398 28.712959,20.6570216 29.158288,20.1983854 C29.6035502,19.7397491 29.8298912,19.1501215 29.8335009,18.4293693 L29.8335009,17.4575004 C29.8407871,17.3155765 29.7714677,17.1808521 29.6546875,17.1007907 C29.5342307,17.0170629 29.340778,16.9733992 29.0669762,16.9770656 L28.1910243,16.9770656 L28.1910243,16.4856315 L32.271714,16.4856315 L32.271714,16.9770656 L31.9541948,16.9770656 C31.6913558,16.9770656 31.5051893,17.0243291 31.3920856,17.1153897 C31.2752385,17.2136499 31.2132053,17.3592402 31.2241681,17.5120968 L31.2241681,21.4651014 L30.7605901,21.4651014 C30.5927394,20.8499422 30.4175357,20.2603146 30.2349788,19.6960853 C29.9320321,20.223917 29.5013424,20.6679542 28.9830843,20.9882663 C28.4830083,21.2795137 27.9172225,21.425104 27.3405408,21.4177712 C26.4827711,21.4214376 25.6433172,21.1884531 24.9096139,20.7444158 C24.1577285,20.2893793 23.5445488,19.6342228 23.143004,18.851608 C22.7087046,18.036262 22.4933264,17.3883717 22.4933264,16.3619064 C22.4933264,15.3354411 22.7087046,14.6802179 23.1466806,13.8612055 C23.5591213,13.0677248 24.1759775,12.3979692 24.9315395,11.9174677 C25.6871014,11.4370329 26.4499496,11.1967821 27.2237606,11.1967821 C27.6544503,11.1967821 28.0815303,11.2731771 28.4830083,11.4224338 C28.968445,11.6153544 29.4247367,11.8883363 29.8335009,12.2232474 L30.4065729,11.1895159 L30.8774371,11.1895159 Z M35.5779243,14.4600991 C36.3590215,14.4600991 36.954019,14.6275547 37.3664597,14.9623991 C37.7569749,15.2572463 37.9833159,15.7158825 37.9833159,16.1999838 L37.9833159,19.7853461 C37.9723532,20.0037983 38.0271002,20.2185174 38.1402707,20.4041717 C38.2242294,20.5352297 38.3555821,20.6298234 38.5089272,20.6589548 C38.7497738,20.6844198 38.9979736,20.6953524 39.2461733,20.6880862 L39.25,20.695 L39.3474452,20.6956191 C39.5043999,20.7065517 39.6576781,20.6555551 39.7781349,20.5572949 C39.876733,20.4663009 39.93148,20.335243 39.9278034,20.2005852 L39.9278034,15.9054033 C39.9424427,15.7088163 39.876733,15.5195622 39.7453134,15.3739719 C39.6248567,15.2575129 39.3803335,15.1810513 39.0152867,15.1483202 L39.0189632,14.6568861 L40.8987437,14.5367607 C40.9972749,14.995397 41.0665943,15.4612994 41.1030923,15.9308683 C41.460786,15.4213021 41.8148701,15.0609259 42.1725638,14.8498066 C42.5266478,14.6423537 42.935412,14.5331609 43.3478527,14.5367607 C43.7530072,14.5222283 44.1508754,14.6459535 44.4720711,14.8934704 C44.7677316,15.1300547 44.9940058,15.5158958 45.1546371,16.0509936 C45.4137996,15.5996236 45.7714933,15.2137825 46.1985065,14.9153356 C46.5708395,14.6678187 47.0052058,14.5367607 47.4541445,14.5404271 C48.0527517,14.5404271 48.5016904,14.7187486 48.8009606,15.0718586 C49.1842564,15.537761 49.3777091,16.1419876 49.3777091,16.8772722 L49.3777091,20.1241236 C49.3777091,20.3207106 49.425103,20.4517019 49.5237011,20.5244971 C49.6952283,20.6446224 49.8996438,20.6992188 50.107669,20.6846865 L50.4362178,20.6846865 L50.436,20.688 L51.2382229,20.688852 C51.367406,20.6788388 51.4900606,20.6263837 51.5893138,20.5390294 C51.6915215,20.4189041 51.7426588,20.2624478 51.7316961,20.1022584 L51.7316961,15.9708656 C51.7462685,15.7488803 51.6659863,15.5340946 51.505355,15.381238 C51.3557533,15.2465136 51.1330888,15.1810513 50.8374283,15.1810513 L50.5673031,15.1810513 L50.5709796,14.6568861 L52.9179477,14.5804245 L52.9179477,20.2223838 C52.906985,20.3425091 52.9471595,20.4626345 53.0310514,20.5499621 C53.1442219,20.6446224 53.2902139,20.6955524 53.4398824,20.6882862 L54.051,20.688 L54.0514578,20.6850864 L54.5077496,20.6850864 C54.6938492,20.696019 54.8763392,20.6486888 55.0296843,20.5467623 C55.1427879,20.4667009 55.2084977,20.3356429 55.2084977,20.1973188 L55.2084977,15.9639994 C55.2267467,15.7310815 55.1464645,15.498097 54.9822235,15.3270416 C54.8301485,15.1966058 54.6425615,15.1217682 54.4448393,15.1088941 L53.9894246,15.1086561 L53.985748,14.657286 L56.1684752,14.5226283 C56.2670064,14.9994634 56.3327162,15.4798982 56.3656045,15.9639994 C56.6210904,15.5272284 56.9787841,15.1595861 57.4094738,14.8938704 C57.8219145,14.6536196 58.2891022,14.5298945 58.7672527,14.5371607 C59.146872,14.5226283 59.5264912,14.6136223 59.8622594,14.7919438 C60.1761689,14.9812646 60.4243686,15.2651791 60.5703606,15.6000235 C60.7529174,15.9858646 60.8441624,16.4117697 60.8368093,16.8376082 L60.8368093,20.0298632 C60.8368093,20.2664475 60.8915563,20.4375695 60.9974406,20.5358297 C61.1106111,20.6377562 61.2858149,20.6850864 61.5376243,20.6850864 L61.7274674,20.6850864 L61.7274674,21.2092517 L58.8074272,21.2092517 L58.8074272,20.6850864 L58.8658508,20.6850864 C59.1760837,20.6850864 59.3877855,20.6340898 59.5118519,20.5394961 C59.6396617,20.4303033 59.7053047,20.2664475 59.6944087,20.0990586 L59.6944087,17.2926447 C59.6944087,16.6810852 59.5994872,16.2297151 59.4133207,15.9349347 C59.1505485,15.5162958 58.7526803,15.3051764 58.2197828,15.3051764 C57.7014578,15.2979102 57.2124114,15.5344946 56.8985019,15.9422009 C56.5444179,16.3680393 56.3692141,16.9176695 56.3692141,17.6020242 L56.3692141,20.0298632 C56.3692141,20.2701139 56.4239611,20.4375695 56.5334551,20.5358297 C56.6429491,20.6340898 56.8255059,20.6850864 57.0773153,20.6850864 L57.2598053,20.6850864 L57.2598053,21.2092517 L54.184,21.209 L54.1844816,21.2124515 L50.1731114,21.2124515 L50.173,21.208 L47.121986,21.2088517 L47.121986,20.6846865 L47.4504679,20.6846865 C47.731556,20.6846865 47.9250087,20.6373563 48.0417889,20.5463623 C48.1585691,20.4407693 48.2206023,20.284313 48.2097064,20.1241236 L48.2097064,16.870006 C48.2097064,16.3859048 48.0892497,16.0073299 47.8520127,15.7416142 C47.6147089,15.4758984 47.2716545,15.3266417 46.9139608,15.341174 C46.6291962,15.3375743 46.3518515,15.4213021 46.1182243,15.577825 C45.8700245,15.7452139 45.6765718,15.9781985 45.556115,16.2511804 C45.3553761,16.6661529 45.2568449,17.0192628 45.2568449,17.3104435 L45.2568449,20.1313898 C45.2422056,20.2879128 45.3006291,20.4444357 45.4101231,20.5572949 C45.5210877,20.6388362 45.6507478,20.6854357 45.7859952,20.6952164 L46.3372122,20.6956191 L46.3372122,21.2197177 L42.9828727,21.2197177 L42.9828727,20.6956191 L43.362492,20.6956191 C43.5522682,20.7101514 43.7384347,20.6592215 43.8953894,20.5572949 C44.0084931,20.4735671 44.0742029,20.3389094 44.0705932,20.2005852 L44.0705932,17.1757191 C44.0705932,16.5350949 43.9574227,16.0728589 43.7347582,15.7816115 C43.5194467,15.497697 43.1763255,15.3375743 42.8186318,15.3485069 C42.3222323,15.3485069 41.942613,15.5158958 41.6724878,15.8508069 C41.2965451,16.3239755 41.0958061,16.9136698 41.1030923,17.5178964 L41.1030923,20.1350562 C41.1030923,20.335243 41.1469434,20.4735671 41.2381884,20.5500287 C41.4133921,20.6628212 41.6214173,20.7138179 41.8294425,20.6956191 L42.1652775,20.6956191 L42.1652775,21.2197177 L38.8510457,21.2197177 L38.8520094,21.208457 C38.7985348,21.2102306 38.7431054,21.2103714 38.6869182,21.2100196 L38.4942879,21.2085851 L38.4942879,21.2085851 C38.1767687,21.2085851 37.5379869,21.1903863 37.318999,21.0265971 C37.0780855,20.8482756 37.008766,20.6698874 36.844525,20.2367162 C36.399196,20.7026853 36.008614,21.0156645 35.6728458,21.1721875 C35.2896169,21.3359766 34.8771093,21.4161046 34.4610589,21.405172 C33.7857792,21.405172 33.2748072,21.2595817 32.9243998,20.9720007 C32.584955,20.7026186 32.3878258,20.2913125 32.3987885,19.8582079 C32.3987885,19.1775197 32.8002665,18.6132904 33.6032892,18.161987 C34.4063119,17.710617 35.4721068,17.4121034 36.808027,17.2665131 L36.808027,16.2727789 C36.808027,15.9197357 36.6510723,15.588491 36.380947,15.3628393 C36.0780003,15.1043897 35.6910948,14.969732 35.2932266,14.9842644 C34.9245701,14.9733318 34.5632667,15.060726 34.2420041,15.2354477 C34.0303692,15.3628393 33.9281615,15.4865644 33.9281615,15.6066898 C33.9536967,15.7304816 34.0120534,15.8432741 34.0960121,15.934268 C34.2128592,16.0762586 34.2858552,16.247314 34.3004276,16.4329683 C34.3077139,16.6258889 34.2347179,16.8115432 34.0960121,16.946201 C33.9536967,17.0808587 33.7602439,17.1536539 33.5631147,17.1463877 C33.3441267,17.1536539 33.1288153,17.0663263 32.9754702,16.9098034 C32.8185155,16.7460142 32.730947,16.5276287 32.7419098,16.3019103 C32.7419098,15.8396743 33.004682,15.4174356 33.5266167,15.0351943 C34.0522279,14.6530197 34.7347939,14.4600991 35.5779243,14.4600991 Z M8.51869222,11.4421959 C10.3319324,11.0412401 12.5966485,10.9033961 15.4650559,11.1271867 C14.837237,19.8922723 6.48603456,23.5249648 0.0218685823,20.0815264 L0.0218685823,20.0815264 L0.161397811,19.7658006 C0.76446752,18.3894546 1.33900871,16.9479608 2.19413537,15.6413962 L2.17540749,15.6404209 C3.37689681,13.8039311 5.13757997,12.2344336 8.31760014,11.4883372 C8.35628653,11.4790326 8.39514354,11.470025 8.43421231,11.4611408 C8.44288067,11.4595342 8.4513299,11.4576342 8.45978899,11.4557398 Z M14.2860237,19.1520547 C13.6947695,19.1520547 13.2129425,19.6325562 13.2129425,20.2222504 C13.2129425,20.811878 13.6947695,21.2923795 14.2860237,21.2923795 C14.8810212,21.2923795 15.3627813,20.8155444 15.3591918,20.2222504 C15.3591918,19.6325562 14.8773447,19.1520547 14.2860237,19.1520547 Z M14.3615689,19.5059507 C14.4924847,19.5090951 14.591203,19.5248167 14.6875684,19.6034248 C14.7897762,19.6871526 14.8445232,19.8145441 14.8408467,19.9456021 L14.8408467,19.9456021 C14.8408467,20.1239236 14.7276761,20.284113 14.5598255,20.3314432 L14.5598255,20.3314432 L14.8700584,20.892006 L14.5780745,20.892006 L14.300663,20.375107 L14.0707122,20.375107 L14.0707122,20.892006 L13.8115497,20.892006 L13.8115497,19.5051647 Z M36.800674,17.7251493 C35.6108126,17.8889385 34.7712919,18.1546542 34.2748924,18.5222965 C33.9062359,18.8026112 33.7200694,19.1993183 33.7200694,19.7125509 C33.7200694,20.072927 33.8149909,20.3532418 34.0084437,20.5570283 C34.2018964,20.7608814 34.4756314,20.8737406 34.7603291,20.862808 C35.3041893,20.8664744 35.826124,20.6371563 36.1947805,20.2367162 C36.599935,19.8181439 36.818923,19.2503149 36.800674,18.6678868 L36.800674,17.7251493 Z M14.283231,19.7234341 L14.191169,19.7272166 L14.0707122,19.7272166 L14.0707122,20.1603212 L14.3334844,20.1603212 C14.3444472,20.1567215 14.3517334,20.1567215 14.3626962,20.1567215 C14.4831529,20.1567215 14.5780745,20.0620611 14.5780745,19.9419357 C14.5816842,19.8618743 14.5378999,19.7890792 14.4649039,19.7562813 C14.3773355,19.7272166 14.282414,19.716284 14.191169,19.7272166 Z M64.8642895,14.9036697 C64.4700978,14.8964035 64.0905454,15.0638591 63.8349926,15.362306 C63.5649342,15.6680857 63.4298381,16.0939908 63.4262284,16.6472208 C63.4262284,17.2332486 63.5612576,17.6918849 63.8349926,18.0158634 C64.3168196,18.5909586 65.1745893,18.6674202 65.7475945,18.1869187 C65.806018,18.1396552 65.8571553,18.0886586 65.9082257,18.0303958 C66.178351,17.7137501 66.3097037,17.26238 66.3097037,16.6763522 C66.3097037,16.1303884 66.1746745,15.6972171 65.9009395,15.3805048 C65.6454535,15.0711253 65.2658343,14.8964035 64.8642895,14.9036697 Z M52.1222112,11.5592248 C52.3303033,11.5592248 52.5310423,11.6429525 52.6770342,11.7958757 C52.8303124,11.9414661 52.9179477,12.1453192 52.9179477,12.3564386 C52.9179477,12.5638915 52.833989,12.7604118 52.687997,12.9024024 C52.3776972,13.2045157 51.8812977,13.2008493 51.5747413,12.8914698 C51.2717946,12.5820903 51.2754043,12.0870564 51.5857041,11.7812767 C51.7280195,11.6393528 51.9214723,11.5592248 52.1222112,11.5592248 Z M15.4650559,10.2407122 C14.2045519,10.339434 13.0606272,10.3682807 12.0203647,10.3356128 L12.0158618,10.3442386 C3.82858102,10.0922553 2.04806317,6.03469239 0.410136199,2.23694886 L0.164733563,1.66974415 L0.164733563,1.66974415 L0,1.29527854 C0.217740023,1.17924125 0.437606725,1.07123397 0.659234159,0.971181878 C0.689980247,0.958376057 0.720270793,0.944796052 0.750593712,0.931364278 C0.792997708,0.911744202 0.836016778,0.893110527 0.879097194,0.874773491 C0.92311077,0.856577566 0.967100584,0.838090386 1.01115235,0.819911293 C1.04988032,0.803676957 1.08827292,0.788172904 1.12670986,0.77290173 C7.39914479,-1.73310094 14.872474,1.96759504 15.4650559,10.2407122 Z M36.6405106,3.3156846 C37.4873175,3.2974858 38.2976265,3.64692264 38.867022,4.26936137 C39.4656292,4.90635248 39.7648994,5.74354364 39.7648994,6.78460796 C39.7648994,7.50162709 39.6298702,8.11678631 39.3634214,8.62275277 C39.1005824,9.12145304 38.702781,9.54002529 38.2136677,9.8239398 C37.728231,10.1115207 37.1734081,10.2643773 36.6076223,10.2607775 C35.7791312,10.2716435 34.9870712,9.91860019 34.443211,9.29617479 C33.85189,8.65188417 33.5562295,7.81833943 33.5562295,6.79187414 C33.5562295,5.76538219 33.85189,4.92819103 34.4468207,4.28028065 C34.9979671,3.65420215 35.8009899,3.30112556 36.6405106,3.3156846 Z M62.265512,3.3156846 C63.1123189,3.2974858 63.9226279,3.64692264 64.4920233,4.26936137 C65.0906306,4.90635248 65.3899007,5.74354364 65.3899007,6.78460796 C65.3899007,7.50162709 65.2548715,8.11678631 64.9884228,8.62275277 C64.7256506,9.12145304 64.3277824,9.53642553 63.8386691,9.82034004 C63.3532324,10.1115207 62.7984094,10.2607775 62.229014,10.2607775 C61.400456,10.2716435 60.6083961,9.91860019 60.0645358,9.29617479 C59.4732817,8.65188417 59.1776212,7.81833943 59.1776212,6.79187414 C59.1776212,5.76538219 59.4732817,4.92819103 60.0682124,4.28028065 C60.6266451,3.65420215 61.4296678,3.30112556 62.265512,3.3156846 Z M34.1106514,3.5077052 L34.1106514,3.98818001 C33.8734145,4.00273905 33.6470734,4.07918065 33.450011,4.21385839 C33.2820935,4.34125661 33.150674,4.50869884 33.0703917,4.70161272 L30.6613904,10.2598442 L30.2817711,10.2598442 L27.6975661,4.54873619 C27.6318563,4.3740211 27.5113996,4.22477766 27.3617979,4.11921799 C27.2267018,4.0391433 26.6646595,3.99545953 26.3798949,3.98818001 L26.368999,3.51134496 L29.964252,3.51134496 L29.964252,3.98818001 C29.5335623,3.99545953 29.2597605,4.03550354 29.1393037,4.1010192 C29.0298097,4.15562225 28.9568137,4.26846143 28.9604903,4.39221989 C28.9604903,4.49777956 28.9860255,4.60333923 29.0298097,4.70161272 L30.7745609,8.57088954 L32.3622905,4.81809166 C32.3842161,4.75621576 32.395112,4.69069344 32.3987885,4.62153803 C32.3987885,4.28302047 32.0630203,4.06826137 31.3877406,3.98454026 L31.3877406,3.5077052 L34.1106514,3.5077052 Z M52.7624636,0.836008987 L52.7624636,3.5077452 L55.454,3.507 L57.9696445,3.43376344 L57.9696445,9.07572274 C57.9587486,9.19584811 57.9988563,9.31597348 58.082815,9.40330102 C58.1959856,9.49796141 58.3419775,9.54889137 58.4916461,9.54162518 L58.96612,9.54162518 L58.96612,10.0657904 L55.7687352,10.0657904 L55.7687352,9.54162518 L56.1921387,9.54162518 C56.3563797,9.55622421 56.5169441,9.50156117 56.6410774,9.39236841 C56.7432852,9.27224304 56.7980322,9.11212032 56.7833929,8.95559737 L56.7833929,4.95162948 C56.7980322,4.72959086 56.7177499,4.51483177 56.5571187,4.36195523 C56.4074501,4.2272775 56.1847856,4.16175517 55.889192,4.16175517 L55.3489415,4.16175517 L55.348,4.152 L52.7624636,4.15201582 L52.7624636,8.35257068 C52.7624636,8.71654655 52.8500989,8.99679464 53.0216261,9.18971518 C53.1858671,9.37903596 53.4304571,9.4845623 53.6822665,9.48096254 C54.0108153,9.47729611 54.3137621,9.30984055 54.496252,9.04052507 C54.7225262,8.74567795 54.8502692,8.26151005 54.8904437,7.58448826 L55.361308,7.58448826 C55.3320962,8.45809701 55.1349669,9.10238763 54.7663105,9.52822607 C54.4086167,9.94686498 53.8793958,10.1797829 53.3282494,10.1615841 C52.7843891,10.1615841 52.3609857,10.012394 52.0543624,9.71388043 C51.747806,9.4081007 51.5798885,8.98952845 51.5981375,8.55635717 L51.5981375,4.15201582 L50.4520603,4.15201582 L50.4520603,3.66062173 C50.9776047,3.57326085 51.3718633,3.354862 51.6419217,3.00906492 C52.0433996,2.49583228 52.2587779,1.76784054 52.2915994,0.836008987 L52.7624636,0.836008987 Z M49.7533176,3.38531331 L49.7533176,8.76154356 C49.7386783,8.9726629 49.8153508,9.18011582 49.9650193,9.33303901 C50.1255838,9.47496294 50.3372855,9.54415835 50.5526638,9.53322574 L50.9687142,9.53322574 L50.9687142,10.0027946 L48.7568421,10.0537246 L48.6181364,8.76520999 C48.2859779,9.17651605 47.8844999,9.52955932 47.4318847,9.80987407 C47.0705144,10.031926 46.6543972,10.1556511 46.227384,10.1593176 C45.6689513,10.1738499 45.1287008,9.95913084 44.7345091,9.5659569 C44.3293546,9.17284963 44.125006,8.51036022 44.125006,7.57128914 L44.125006,4.72482451 C44.1359019,4.49186662 44.0191217,4.27346777 43.8219924,4.14970931 C43.6833535,4.05506891 43.3949792,4.00411229 42.9570033,3.99683277 L42.9570033,3.50543202 L45.2856556,3.38895974 L45.2856556,7.73507828 C45.2856556,8.26650972 45.4207516,8.67781578 45.6872003,8.96539672 C45.9536491,9.25297765 46.3332015,9.41310037 46.72746,9.398568 C47.2457182,9.40216776 47.738508,9.16924987 48.0633134,8.76520999 C48.4356464,8.32477252 48.6327088,7.7569435 48.6144598,7.18178163 L48.6144598,4.72482451 C48.6254226,4.52098469 48.5341776,4.32807081 48.3736132,4.20431235 C48.2129819,4.08055389 47.9027489,4.01139181 47.4428475,3.99683277 L47.4428475,3.50543202 L49.7533176,3.38531331 Z M26.531903,0.257919978 L26.7290323,2.93693637 L26.258168,2.93693637 C26.0720015,1.83766925 26.0464663,1.60835112 25.6449215,1.16791365 C25.239767,0.727476182 24.4404209,0.782079229 23.7944197,0.782079229 L21.7613611,0.782079229 C21.6226553,0.771153286 21.4875593,0.822116574 21.3890281,0.916756967 C21.2977831,1.02959615 21.2503223,1.17519317 21.2649616,1.32079018 L21.2649616,4.73872359 L22.1518763,4.73872359 C22.5972053,4.75328262 23.0206088,4.56400184 23.3089162,4.22912404 C23.6082532,3.88696672 23.7688176,3.36645456 23.7870666,2.66030138 L24.2725702,2.66030138 L24.2725702,7.45416357 L23.7907432,7.45416357 C23.7688176,6.66062284 23.6045767,6.09278716 23.3053065,5.75062984 C23.0059695,5.40847919 22.5935287,5.2373972 22.0752037,5.2373972 L21.2649616,5.2373972 L21.2649616,9.08118904 C21.2576086,9.21224702 21.3123555,9.33963857 21.4145633,9.42336636 C21.5131614,9.50342771 21.681012,9.54349173 21.9146393,9.54349173 L23.5206179,9.54349173 C25.2616926,9.54349173 26.2691308,8.9756627 26.5355795,6.75527657 L27.0392652,6.75527657 L26.8640615,10.067657 L18.5785488,10.067657 L18.5785488,9.54349173 L19.0165247,9.54349173 C19.2939362,9.54349173 19.487389,9.49616153 19.6005595,9.40150114 C19.7173397,9.2959748 19.7793729,9.14305161 19.7684102,8.98659531 L19.7684102,1.32442994 C19.7793729,1.17519317 19.7283025,1.02595639 19.6224182,0.920396726 C19.4909987,0.822116574 19.3267577,0.774793045 19.158907,0.785712321 L18.5785488,0.785712321 L18.5785488,0.257919978 L26.531903,0.257919978 Z M41.9532416,0.140740413 L41.9532416,9.10232097 C41.9459554,9.21518016 41.9897396,9.32437292 42.0736983,9.40443428 C42.1941551,9.49909467 42.3474333,9.55009129 42.5007115,9.54275844 L42.924115,9.54275844 L42.924115,10.0669237 L39.7449792,10.0669237 L39.7449792,9.54275844 L40.1318847,9.54275844 C40.3070884,9.55735747 40.4786156,9.49909467 40.6100352,9.38990191 C40.7195291,9.27344296 40.7779527,9.11692 40.7669899,8.95673062 L40.7669899,1.52393005 C40.7852389,1.33464926 40.7158526,1.14536848 40.5771469,1.0143305 C40.3983334,0.861453966 40.1719924,0.785019034 39.938432,0.788658792 L39.3507875,0.788658792 L39.3507875,0.257219357 L41.9532416,0.140740413 Z M67.4410747,3.37490067 C67.540007,3.85173573 67.6055162,4.33221054 67.6382708,4.81632511 C67.8936231,4.37953407 68.2512499,4.01189844 68.6824076,3.74617606 C69.0948483,3.50593865 69.5621028,3.38218019 70.0400527,3.38945971 C70.4197388,3.37490067 70.7994249,3.46590131 71.1349926,3.64425615 C71.4491695,3.83353693 71.6971687,4.11745144 71.8428932,4.45232924 C72.0253832,4.83816366 72.1169624,5.2640421 72.1096094,5.68992053 L72.1096094,8.88220223 C72.1096094,9.11878655 72.1644232,9.28984187 72.2700401,9.38810203 C72.3796678,9.48642884 72.5588154,9.5373588 72.810157,9.5373588 L73,9.5373588 L73,10.061524 L70.0801604,10.061524 L70.0801604,9.5373588 L70.1383166,9.5373588 C70.4491511,9.5373588 70.6643957,9.4900286 70.7847188,9.39176845 C70.9123949,9.28257569 70.9779041,9.11878655 70.9672088,8.95133098 L70.9672088,6.14491703 C70.9672088,5.53339757 70.8722872,5.0820475 70.6857865,4.78720704 C70.4230811,4.36861479 70.0253466,4.15749546 69.4925828,4.15749546 C68.9745252,4.15021594 68.4852114,4.38681359 68.1710346,4.79448656 C67.8174185,5.22036499 67.6422816,5.77000189 67.6422816,6.45430986 L67.6422816,8.88220223 C67.6422816,9.11878655 67.6964269,9.28984187 67.8060546,9.38810203 C67.9156823,9.48642884 68.0981723,9.5373588 68.3501822,9.5373588 L68.5360145,9.5373588 L68.5360145,10.061524 L65.5943162,10.061524 L65.5943162,9.5373588 L65.7768731,9.5373588 C65.9629727,9.54829141 66.1455295,9.50096121 66.2988078,9.39903464 C66.4119783,9.31897328 66.4776212,9.1879153 66.4776212,9.04959114 L66.4776212,4.81632511 C66.4958702,4.58336722 66.415588,4.35040933 66.251347,4.17933401 C66.068857,4.02281105 65.8352297,3.94637612 65.5943162,3.96093515 L65.2585481,3.96093515 L65.2585481,3.50957841 L67.4410747,3.37490067 Z M36.6405106,3.81436487 C36.1148994,3.81436487 35.6842097,4.05096252 35.3483746,4.52415781 C35.0126065,4.99735311 34.8446889,5.74354364 34.8446889,6.76274274 C34.8446889,7.8037404 35.0126065,8.56448996 35.3483746,9.04499144 C35.6842097,9.52549292 36.1148994,9.76574366 36.6441203,9.76574366 C37.1916571,9.76574366 37.6333095,9.52549292 37.9727542,9.04499144 C38.312199,8.56448996 38.4801165,7.77827542 38.4801165,6.68628114 C38.4801165,5.67438823 38.312199,4.94275006 37.9800405,4.48775356 C37.6734841,4.05460228 37.1734081,3.79979917 36.6405106,3.81436487 Z M62.265512,3.81436487 C61.7399007,3.81436487 61.3128876,4.05096252 60.973376,4.52415781 C60.6376078,4.99735311 60.4696903,5.74354364 60.4696903,6.76274274 C60.4696903,7.8037404 60.6376078,8.56448996 60.973376,9.04499144 C61.309211,9.52549292 61.7399007,9.76574366 62.265512,9.76574366 C62.8129819,9.76574366 63.2546344,9.52549292 63.5941459,9.04499144 C63.9335906,8.56448996 64.1014413,7.77827542 64.1014413,6.68628114 C64.1014413,5.67438823 63.9335906,4.94275006 63.6014322,4.48775356 C63.3020951,4.05460228 62.7984094,3.79979917 62.265512,3.81436487 Z M57.1776514,0.408951298 C57.3856766,0.408951298 57.5864156,0.49631084 57.7324076,0.645549613 C57.8857526,0.791145294 57.9733211,0.994985114 57.9696445,1.20610445 C57.9733211,1.41358403 57.8893623,1.61014433 57.7396938,1.75210159 C57.4294608,2.05421489 56.9330614,2.05057513 56.6264381,1.74118231 C56.3234914,1.43178282 56.3271679,0.936748975 56.6374009,0.630988578 C56.7833929,0.492669748 56.9768456,0.412591724 57.1776514,0.408951298 Z" id="形状结合"></path>
                        </g>
                    </g>
                </g>
            </g>
        </g>
    </g>
</svg>