<?xml version="1.0" standalone="no"?><!DOCTYPE svg PUBLIC "-//W3C//DTD SVG 1.1//EN" "http://www.w3.org/Graphics/SVG/1.1/DTD/svg11.dtd"><svg t="1636340574332" class="icon" viewBox="0 0 2432 1024"  fill="#858CA6" version="1.1" xmlns="http://www.w3.org/2000/svg" p-id="2526" xmlns:xlink="http://www.w3.org/1999/xlink" width="114" height="48"><defs><style type="text/css"></style></defs><path d="M356.309333 320v384H0V320h356.309333z m-182.4 69.504H86.293333v256.213333l100.032-0.576c30.08 0 53.610667-6.741333 69.952-19.072 16.341333-12.330667 24.192-30.826667 24.192-55.488a59.306667 59.306667 0 0 0-11.114666-36.992c-7.189333-10.666667-20.266667-18.496-34.645334-20.757333 11.754667-4.48 21.546667-11.754667 28.096-21.290667a64.853333 64.853333 0 0 0 9.173334-32.512c0-22.997333-9.173333-40.362667-26.154667-52.138666-17.002667-11.776-41.194667-17.386667-71.914667-17.386667z m11.754667 142.954667c9.813333-0.554667 18.965333 3.370667 24.853333 10.090666 5.888 8.405333 8.490667 18.496 7.850667 28.032a35.84 35.84 0 0 1-9.173333 26.346667c-7.189333 6.186667-16.981333 9.536-27.456 8.96H140.586667V532.48z m-15.68-103.146667c10.453333-0.554667 21.568 2.24 29.418667 8.405333 7.189333 7.296 10.453333 16.832 9.813333 26.346667 1.28 8.96-2.624 17.941333-9.173333 24.682667a38.912 38.912 0 0 1-27.456 8.96H140.586667v-68.394667z" p-id="2527"></path><path d="M719.146667 703.445333h-20.928V320h20.906666zM1082.624 703.445333h-20.906667V320h20.906667zM1445.461333 703.445333h-20.906666V320h20.906666zM1808.981333 703.445333h-20.266666V320h20.266666zM2173.077333 703.445333h-20.906666V320h20.906666zM618.453333 603.114667c-7.850667 11.776-19.626667 21.312-33.344 28.032-17.642667 8.96-38.570667 12.885333-58.837333 12.330666-31.381333 0-56.874667-8.405333-75.84-24.661333-18.965333-16.256-28.757333-39.253333-28.757333-69.504V473.6c0-29.717333 9.152-52.693333 27.456-68.949333 18.304-16.256 42.496-24.661333 72.554666-24.106667 30.72 0 53.610667 6.741333 69.973334 19.626667 16.341333 12.885333 24.832 31.381333 26.133333 55.488l-0.64 1.130666h-39.253333c-0.64-16.256-5.205333-28.586667-14.357334-36.437333-9.173333-7.850667-22.890667-12.330667-40.533333-12.330667-16.341333-0.576-32.704 5.610667-43.157333 16.810667-10.453333 11.221333-15.68 27.477333-15.68 48.768v76.245333c0 21.866667 5.866667 38.677333 16.981333 49.898667 11.114667 11.2 28.117333 17.92 45.781333 17.365333a74.666667 74.666667 0 0 0 33.322667-6.165333c7.210667-3.925333 13.738667-9.536 17.664-15.701333v-58.858667H526.933333v-25.770667h92.821334v92.48h-1.301334zM849.898667 552.106667h75.818666l-36.608-112.128h-1.301333l-37.909333 112.106666z m85.632 28.010666H840.746667l-21.589334 64.469334h-42.496l91.52-255.637334h40.533334l90.88 255.637334h-42.496l-21.568-64.469334zM1183.317333 388.949333l69.952 208.554667h1.301334l69.973333-208.554667H1378.133333v255.637334h-41.173333v-98.112l3.264-98.090667-1.301333-0.576-71.253334 196.778667h-27.477333l-71.893333-196.202667h-0.661334l3.264 98.090667v98.112h-41.173333V388.949333zM1636.352 644.586667h-41.173333V388.949333h41.173333zM2084.181333 644.586667h-41.834666l-113.109334-190.037334h-1.301333v190.037334h-41.173333V388.949333h41.173333l113.109333 189.482667h1.28v-189.482667h41.856zM2432 604.757333c-8.512 11.776-19.626667 21.290667-33.344 28.032-17.664 8.96-38.570667 12.885333-58.837333 12.330667-31.381333 0-56.234667-7.850667-75.84-24.106667-18.965333-16.256-28.778667-39.253333-28.778667-69.504v-76.8c0-29.717333 9.152-52.693333 27.456-68.949333 18.325333-16.277333 42.496-24.682667 71.914667-24.682667 30.741333 0 53.610667 6.741333 69.952 19.626667 16.362667 12.885333 24.853333 31.381333 26.154666 55.488l-0.64 1.130667h-39.232c-0.661333-16.256-5.226667-28.032-14.378666-36.437334-9.152-8.405333-22.890667-12.330667-40.533334-12.330666-16.341333-0.554667-32.704 5.610667-43.157333 16.810666-10.453333 11.221333-15.68 27.477333-15.68 48.768V550.4c0 21.866667 5.866667 38.677333 16.981333 49.898667 11.114667 11.2 28.117333 17.92 45.781334 17.365333a74.773333 74.773333 0 0 0 33.344-6.165333c7.189333-3.925333 13.717333-9.514667 17.642666-15.701334v-58.282666h-50.986666v-25.813334H2432v93.077334z" p-id="2528"></path></svg>