<?xml version="1.0" encoding="UTF-8"?>
<svg width="74px" height="24px" viewBox="0 0 74 24" version="1.1" xmlns="http://www.w3.org/2000/svg" xmlns:xlink="http://www.w3.org/1999/xlink">
    <title>AG</title>
    <g id="页面-1" stroke="none" stroke-width="1" fill="none" fill-rule="evenodd">
        <g id="PC-Footer---EN" transform="translate(-590.000000, -712.000000)" fill="#858CA6" fill-rule="nonzero">
            <g id="Footer-EN" transform="translate(0.000000, 623.000000)">
                <g id="Business-Support" transform="translate(590.000000, 15.000000)">
                    <g id="Game-Provider" transform="translate(0.000000, 54.000000)">
                        <g id="AG" transform="translate(0.000000, 20.000000)">
                            <path d="M42.7425351,0 L38.9961082,21.1301796 L21.757,21.13 L21.2483728,24 L0,24 L3.74642689,2.87105575 L20.985,2.871 L21.4941622,0 L42.7425351,0 Z M71.2367309,16.7334123 C71.543347,16.7334123 71.7891364,16.795182 72.0349259,16.9780203 C72.2807153,17.0990889 72.4644367,17.3436969 72.5873314,17.5883049 L72.8331208,16.8557163 L74,16.8557163 L72.8331208,20.4581253 C72.6493994,21.0078756 72.4644367,21.435322 72.40361,21.67993 C72.2807153,21.9233026 72.1578206,22.1073763 72.0349259,22.2902146 C71.9120311,22.4125187 71.7283097,22.5348227 71.543347,22.6571267 C71.3596256,22.7781953 71.1138361,22.839965 70.9301147,22.839965 C70.6843253,22.9017347 70.4385359,22.9017347 70.1319197,22.9017347 C69.4553781,22.9017347 69.0271086,22.7781953 68.7192512,22.595357 C68.4113937,22.4125187 68.2897403,22.0456066 68.350567,21.557626 C68.288499,21.3747877 68.288499,21.313018 68.350567,21.2524837 L69.6403409,21.435322 C69.6403409,21.557626 69.6403409,21.67993 69.7024089,21.7404643 C69.7632356,21.802234 69.8240623,21.8640037 69.8861303,21.9233026 C69.9481983,21.9850723 70.1319197,21.9850723 70.2535731,21.9850723 C70.4993625,21.9850723 70.745152,21.9233026 70.8680467,21.8627683 C70.9921828,21.8009986 71.1138361,21.67993 71.1759042,21.4958563 C71.2379722,21.3747877 71.2987989,21.190714 71.4216936,20.8250373 L71.4825203,20.6409636 C70.9909414,20.9473413 70.5614306,21.1301796 70.1319197,21.1301796 C69.7011676,21.1301796 69.3337248,21.0078756 69.0879353,20.7027333 C68.8421459,20.397591 68.7192512,19.9701446 68.7800778,19.4203943 C68.8421459,18.9311783 68.9650406,18.4431976 69.2095887,18.0157513 C69.4553781,17.5883049 69.7632356,17.2831626 70.1319197,17.0385546 C70.4993625,16.7939466 70.8680467,16.7334123 71.2367309,16.7334123 Z M14.0025498,4.82544912 L1.72052607,21.1301796 L4.54338053,21.1301796 L8.22773938,16.1836619 L15.7814198,16.1836619 L17.746494,21.1301796 L20.5730725,21.1301796 L14.0025498,4.82544912 Z M45.5058042,15.0236269 C46.2431725,15.0236269 46.7955781,15.2064652 47.2250889,15.5116076 C47.6545997,15.8167499 47.9003892,16.3059659 47.9624572,16.9162506 L46.73351,17.0385546 C46.671442,16.7334123 46.488962,16.4270345 46.3039992,16.3059659 C46.0582098,16.1218922 45.8124203,16.0613579 45.4449775,16.0613579 C45.0142253,16.0613579 44.6455412,16.1836619 44.2780984,16.3665002 C43.9094142,16.5493385 43.6015567,16.9162506 43.3570087,17.3424615 C43.1112192,17.7711433 42.9883245,18.2591239 42.9262565,18.7483399 C42.8641884,19.2363206 42.9883245,19.6032326 43.1720459,19.8478406 C43.4178353,20.0912133 43.7244515,20.2135173 44.2160303,20.2135173 C44.5226464,20.2135173 44.7684359,20.1517476 45.0762934,20.0912133 C45.3829095,20.0294436 45.6286989,19.9083749 45.8744884,19.8478406 L46.1811045,18.992948 L44.5847145,18.992948 L44.7684359,17.8934473 L47.5937731,17.8934473 L46.73351,20.4581253 C46.3660672,20.6409636 45.935315,20.8238019 45.4449775,20.9461059 C44.9533986,21.0696453 44.4618198,21.1301796 43.9702409,21.1301796 C43.1720459,21.1301796 42.6196403,20.9461059 42.2509562,20.6409636 C41.6985506,20.2135173 41.5135879,19.5414629 41.5756559,18.6865702 C41.6377239,18.1380553 41.8214453,17.5265352 42.1280615,17.0385546 C42.4967456,16.4270345 42.9262565,15.8772842 43.5407301,15.5721419 C44.0931356,15.2064652 44.7696772,15.0236269 45.5058042,15.0236269 Z M50.8486211,16.6111083 C51.4630947,16.6111083 51.8913642,16.7334123 52.138395,16.9162506 C52.3841844,17.1608586 52.5070791,17.4042312 52.5070791,17.7093736 C52.5070791,17.832913 52.4450111,17.9539816 52.4450111,18.1380553 C52.382943,18.2591239 52.2612897,18.6865702 52.0763269,19.2980903 C51.8926055,19.7860709 51.8305375,20.152983 51.7697108,20.397591 C51.7697108,20.5804293 51.7697108,20.7632676 51.8317788,21.0078756 L50.6028316,21.0078756 C50.5407636,20.8238019 50.5407636,20.7027333 50.5407636,20.5186596 C50.3570422,20.7027333 50.1112528,20.8238019 49.8654633,20.9461059 C49.6196739,21.0696453 49.3751258,21.0696453 49.1293364,21.0696453 C48.7606522,21.0696453 48.4540361,20.9461059 48.2082467,20.7027333 C47.9624572,20.4581253 47.9003892,20.152983 47.9003892,19.7860709 C47.9624572,19.3586246 48.0853519,19.0534823 48.3919681,18.8101096 C48.6985842,18.5655016 49.1901631,18.4431976 49.8654633,18.3814279 C50.4799369,18.3196582 50.8486211,18.2591239 51.0944105,18.1985896 C51.1564786,18.0157513 51.2173052,17.8934473 51.2173052,17.8316776 C51.2173052,17.7093736 51.2173052,17.5883049 51.0931692,17.5265352 C50.9715158,17.4647655 50.8486211,17.4042312 50.6028316,17.4042312 C50.3570422,17.4042312 50.1733208,17.4660009 50.0504261,17.5277706 C49.988358,17.7093736 49.92629,17.8316776 49.8654633,17.9539816 L48.6377575,17.8316776 C48.8214789,17.4660009 49.0672683,17.1608586 49.4359525,16.9162506 C49.8046367,16.6716426 50.2962155,16.6111083 50.8486211,16.6111083 Z M59.2613232,16.6111083 C59.6300074,16.6111083 59.8757968,16.672878 60.0595182,16.9162506 C60.244481,17.0990889 60.3053077,17.3436969 60.3053077,17.6488392 C60.3053077,17.7711433 60.2432396,18.0762856 60.1215863,18.4431976 L59.2613232,21.0684099 L58.032376,21.0684099 L58.8926391,18.4431976 C59.0167751,18.1380553 59.0776018,17.9539816 59.0776018,17.8934473 C59.0776018,17.7699079 59.0776018,17.7093736 59.0155338,17.5883049 C58.9534657,17.5265352 58.8318124,17.4647655 58.7089177,17.4647655 C58.4023016,17.4647655 58.0944441,17.6488392 57.8486546,17.8934473 C57.6649332,18.1380553 57.4812118,18.5037319 57.2962491,19.0534823 L56.6817755,21.0078756 L55.4540697,21.0078756 L56.3143327,18.3814279 C56.4372274,18.0762856 56.4372274,17.8934473 56.4980541,17.7711433 C56.4980541,17.6488392 56.4980541,17.5883049 56.3751594,17.4660009 C56.3130913,17.4042312 56.191438,17.3424615 56.0685432,17.3424615 C55.9444072,17.3424615 55.7606858,17.4042312 55.637791,17.4660009 C55.5148963,17.5277706 55.3311749,17.6488392 55.2082802,17.7711433 C55.0853855,17.8934473 54.9624908,18.0762856 54.9016641,18.2591239 C54.8395961,18.3826633 54.777528,18.5655016 54.6558747,18.9311783 L54.0414011,20.8855716 L52.8124539,20.8855716 L54.0414011,16.7334123 L55.2082802,16.7334123 L55.0245588,17.2819272 C55.5148963,16.8544809 56.0064752,16.6716426 56.4980541,16.6716426 C56.8667382,16.6716426 57.1125277,16.7334123 57.2962491,16.8544809 C57.4812118,16.9780203 57.5420385,17.1608586 57.6041066,17.4042312 C57.787828,17.1608586 58.0336174,17.0385546 58.3402335,16.8544809 C58.6468496,16.7334123 58.9547071,16.6111083 59.2613232,16.6111083 Z M67.0607931,16.6716426 C67.4294773,16.6716426 67.7360934,16.7939466 67.9210562,16.9767849 C68.1047776,17.1596232 68.2276723,17.4660009 68.1668456,17.7711433 C68.1668456,17.8934473 68.0427095,18.1985896 67.9210562,18.6260359 L67.1228612,21.0684099 L65.893914,21.0684099 L66.692109,18.6260359 C66.8162451,18.2591239 66.8770717,18.0157513 66.8770717,17.9539816 C66.8770717,17.8316776 66.8770717,17.7093736 66.7529357,17.5883049 C66.692109,17.5265352 66.5692143,17.4647655 66.3854929,17.4647655 C66.2017715,17.4647655 66.0168087,17.5265352 65.7710193,17.7093736 C65.5264712,17.832913 65.3415084,18.0157513 65.2186137,18.2591239 C65.095719,18.4431976 64.9728243,18.7483399 64.7891029,19.2968549 L64.2366973,21.0684099 L63.0077501,21.0684099 L64.4204187,16.7321769 L65.5872979,16.7321769 L65.4035765,17.2819272 C65.7101926,17.0385546 66.0168087,16.8544809 66.2625981,16.7939466 C66.5083876,16.6716426 66.8150037,16.6716426 67.0607931,16.6716426 Z M63.1927129,16.7309415 L61.7800443,21.0054048 L60.5510971,21.0054048 L61.9637657,16.7309415 L63.1927129,16.7309415 Z M50.9094478,19.0534823 C50.8473797,19.0534823 50.7257264,19.115252 50.6028316,19.115252 C49.988358,19.1757863 49.5588472,19.2980903 49.3738845,19.4203943 C49.2522311,19.5414629 49.1293364,19.6637669 49.1293364,19.7860709 C49.1293364,19.9083749 49.1293364,20.030679 49.2522311,20.152983 C49.3751258,20.275287 49.4980205,20.275287 49.6209153,20.275287 C49.8046367,20.275287 49.988358,20.2135173 50.1733208,20.1517476 C50.3570422,20.0912133 50.4799369,19.9689093 50.6028316,19.8478406 C50.7257264,19.7243012 50.786553,19.4809286 50.9094478,19.2363206 L50.9094478,19.0534823 Z M71.4825203,17.4054666 C71.2367309,17.4054666 71.0530095,17.4660009 70.8680467,17.6488392 C70.6843253,17.832913 70.4993625,18.0762856 70.3156411,18.3814279 C70.0698517,18.7483399 70.009025,18.992948 70.009025,19.1757863 L70.009025,19.1770217 C69.946957,19.4809286 70.009025,19.7255366 70.1927464,19.9083749 C70.3156411,20.0912133 70.4993625,20.152983 70.745152,20.152983 C70.9909414,20.152983 71.1759042,20.0912133 71.4216936,19.9083749 C71.6662417,19.7255366 71.7891364,19.5426983 71.9740992,19.237556 C72.0969939,18.9311783 72.2198886,18.6878056 72.2198886,18.4431976 C72.2807153,18.1380553 72.1578206,17.8934473 72.0349259,17.7106089 C71.8512045,17.5265352 71.6662417,17.4054666 71.4825203,17.4054666 Z M31.6882171,2.87105575 C27.3893847,2.87105575 23.275515,6.35116076 22.5381467,10.6256241 C21.8007784,14.9000875 24.6261155,18.3814279 28.9857747,18.3814279 C32.2051344,18.3814279 35.3660234,16.4262565 37.0088075,13.6307928 L37.1539287,13.3743759 L37.5834396,10.9320019 L30.3984433,10.9320019 L29.9689324,13.4349102 L34.4514863,13.4349102 L34.2874165,13.6389694 C33.056943,15.1119027 31.234095,16.0613579 29.3544588,16.0613579 C26.4074683,16.0613579 24.3803261,13.6795182 24.9327317,10.6873938 C25.4863786,7.75580378 28.3104744,5.31342976 31.2587063,5.31342976 C33.1419024,5.31342976 34.6306345,6.26648479 35.3457821,7.74310551 L35.434644,7.9386421 L38.0750185,7.9386421 L38.0211788,7.70281034 C37.3271253,4.89432256 34.914279,2.87105575 31.6882171,2.87105575 Z M63.7451184,15.0829258 L63.3764343,16.1206568 L62.1474871,16.1206568 L62.5161712,15.0829258 L63.7451184,15.0829258 Z M13.1422868,9.58789314 L14.8007448,13.7412879 L10.0103335,13.7412879 L13.1422868,9.58789314 Z M59.6920754,9.2222165 C60.306549,9.2222165 60.7348185,9.34452051 60.9818493,9.52735883 C61.2276387,9.77196685 61.3505334,10.0153395 61.3505334,10.3217172 C61.3505334,10.4427858 61.2884654,10.5650898 61.2884654,10.7479281 C61.2263974,10.8714675 61.104744,11.2976785 60.9197813,11.9091985 C60.7360599,12.3971792 60.6739918,12.7640912 60.6131651,13.0086992 C60.6131651,13.1915376 60.6131651,13.3743759 60.6752332,13.6189839 L59.446286,13.6189839 C59.3842179,13.4349102 59.3842179,13.3138416 59.3842179,13.1297678 C59.2004965,13.3138416 58.9547071,13.4361456 58.7089177,13.5572142 C58.4643696,13.6807536 58.2185802,13.6807536 57.9727907,13.6807536 C57.6041066,13.6807536 57.2974904,13.5572142 57.051701,13.3138416 C56.8059116,13.0692335 56.7438435,12.7640912 56.7438435,12.3971792 C56.8059116,11.9697328 56.9288063,11.6645905 57.2354224,11.4212179 C57.5432799,11.1753745 58.0336174,11.0543059 58.7089177,10.9925362 C59.3233913,10.9307665 59.6920754,10.8702322 59.9378649,10.8096978 C59.9999329,10.6268595 60.0607596,10.5045555 60.0607596,10.4427858 C60.0607596,10.3204818 60.0607596,10.1994132 59.9366235,10.1376435 C59.8149701,10.0758738 59.6920754,10.0153395 59.446286,10.0153395 C59.2004965,10.0153395 59.0167751,10.0771092 58.8938804,10.1388789 C58.8318124,10.3204818 58.7697443,10.4427858 58.7089177,10.5650898 L57.4812118,10.4427858 C57.6649332,10.0771092 57.9107227,9.77196685 58.2794068,9.52735883 C58.648091,9.28275081 59.1396699,9.2222165 59.6920754,9.2222165 Z M56.8059116,9.34452051 L55.393243,13.6189839 L54.1642958,13.6189839 L55.5769644,9.34452051 L56.8059116,9.34452051 Z M52.3221164,9.2222165 C52.9365899,9.2222165 53.3661008,9.34452051 53.6131316,9.52735883 C53.9185063,9.71019715 54.0414011,10.0153395 54.1034691,10.3217172 L52.9365899,10.5045555 C52.8745219,10.3204818 52.8136952,10.2599475 52.6908005,10.1376435 C52.5070791,10.0153395 52.3221164,9.95480517 52.0155002,9.95480517 C51.7076428,9.95480517 51.5859894,10.0165749 51.4630947,10.0771092 C51.3389586,10.1388789 51.2781319,10.2599475 51.2781319,10.3822515 C51.2781319,10.5045555 51.3402,10.5650898 51.402268,10.6268595 C51.4630947,10.6886292 51.7076428,10.7479281 52.0763269,10.8702322 C52.6908005,11.0543059 53.0594847,11.1753745 53.2432061,11.3594482 C53.4889955,11.6040562 53.6118902,11.8474288 53.6118902,12.1525712 C53.5498222,12.5812529 53.3661008,12.8863952 52.9365899,13.1903022 C52.5679058,13.4966799 52.0155002,13.6189839 51.3402,13.6189839 C50.6648997,13.6189839 50.1733208,13.4954445 49.8654633,13.2520719 C49.5588472,13.0086992 49.3130578,12.8863952 49.2522311,12.4589489 L50.4811783,12.2748752 C50.542005,12.5194832 50.6648997,12.7023215 50.8486211,12.7640912 C50.9715158,12.8863952 51.2173052,12.8863952 51.4630947,12.8863952 C51.7697108,12.8863952 51.9534322,12.8246255 52.138395,12.7023215 C52.2612897,12.6405518 52.3221164,12.5194832 52.3221164,12.3971792 C52.3221164,12.3354095 52.3221164,12.2748752 52.2600483,12.2143409 C52.1992216,12.1525712 52.0155002,12.0920369 51.7697108,11.9697328 C51.0323425,11.7251248 50.6028316,11.5422865 50.4191102,11.4199825 C50.1733208,11.2371442 50.0504261,10.9320019 50.1112528,10.5650898 C50.1733208,10.1994132 50.2962155,9.95480517 50.6028316,9.71019715 C51.0323425,9.34452051 51.5859894,9.2222165 52.3221164,9.2222165 Z M48.0232839,7.69526947 L48.4540361,13.6189839 L47.2250889,13.6189839 L47.1630209,12.3366449 L44.6467825,12.3366449 L43.7256928,13.6189839 L42.3738509,13.6189839 L46.5497886,7.69526947 L48.0232839,7.69526947 Z M59.7529021,11.6645905 C59.6908341,11.6645905 59.5691807,11.7263602 59.446286,11.7263602 C58.8318124,11.7868945 58.4023016,11.9091985 58.2173388,12.0315025 C58.0956854,12.1525712 57.9727907,12.2748752 57.9727907,12.3971792 C57.9727907,12.5194832 57.9727907,12.6417872 58.0956854,12.7640912 C58.2185802,12.8863952 58.3414749,12.8863952 58.4643696,12.8863952 C58.648091,12.8863952 58.8318124,12.8246255 59.0167751,12.7628558 C59.2004965,12.7023215 59.3233913,12.5812529 59.446286,12.4589489 C59.5691807,12.3354095 59.6300074,12.0920369 59.7529021,11.8474288 L59.7529021,11.6645905 Z M46.9792995,8.97760848 L45.1991881,11.3594482 L47.1021942,11.3594482 L46.9792995,8.97760848 Z M57.3583171,7.69526947 L56.989633,8.73300046 L55.7606858,8.73300046 L56.1293699,7.69526947 L57.3583171,7.69526947 Z" id="形状结合"></path>
                        </g>
                    </g>
                </g>
            </g>
        </g>
    </g>
</svg>