<?xml version="1.0" encoding="UTF-8"?>
<svg width="84px" height="24px" viewBox="0 0 84 24" version="1.1" xmlns="http://www.w3.org/2000/svg" xmlns:xlink="http://www.w3.org/1999/xlink">
    <title>PS</title>
    <g id="页面-1" stroke="none" stroke-width="1" fill="none" fill-rule="evenodd">
        <g id="PC-Footer---EN" transform="translate(-915.000000, -712.000000)" fill="#858CA6">
            <g id="Footer-EN" transform="translate(0.000000, 623.000000)">
                <g id="Business-Support" transform="translate(590.000000, 15.000000)">
                    <g id="Game-Provider" transform="translate(0.000000, 54.000000)">
                        <g id="PS" transform="translate(325.000000, 20.000000)">
                            <path d="M16.6469113,0.0110986269 C16.686527,0.0279280094 16.7161116,0.0621601793 16.7270236,0.103796143 L18.511,6.909 L28.2833088,7.56026691 C28.3599085,7.56537009 28.417868,7.63160343 28.4127648,7.70820321 C28.4099583,7.75032941 28.3881581,7.78889689 28.3535136,7.8130267 L21.1858654,12.8052691 C21.1228698,12.8491453 21.0362331,12.833646 20.9923569,12.7706504 C20.9839518,12.7585828 20.977515,12.7452579 20.9732866,12.7311728 L20.3568632,10.6778228 C20.3421524,10.62882 20.3555499,10.5756973 20.39174,10.5395317 L22.5996892,8.3330814 C22.6539919,8.27881555 22.6540218,8.19080333 22.5997559,8.13650061 C22.5696757,8.10639995 22.5274649,8.09173605 22.4852017,8.09670482 L19.0451139,8.5011463 C18.9892063,8.5077192 18.9354343,8.47994996 18.9080909,8.43188734 L21.58,18.619 L21.6754654,18.6773485 C21.706528,18.6960719 21.7290423,18.7261947 21.7382032,18.7612878 L23.0120426,23.6410241 C23.0314333,23.7153045 22.9869364,23.7912398 22.912656,23.8106305 C22.871016,23.8215005 22.8266893,23.8124705 22.7926199,23.7861773 L13.421,16.554 L12.9244903,19.3462424 C12.9181723,19.3817196 12.8983239,19.4133567 12.8691305,19.4344823 L6.59657251,23.9735962 C6.53437907,24.0186022 6.44747671,24.0046691 6.40247065,23.9424757 C6.3739111,23.9030095 6.3680963,23.8514725 6.38714406,23.8066349 L10.444,14.256 L0.0540947258,6.23765261 C-0.00668052893,6.19074912 -0.0179258207,6.10345826 0.0289776636,6.042683 C0.0568983464,6.00650474 0.100817913,5.9863614 0.146451923,5.98880442 L12.4861615,6.64941155 C12.5628213,6.65351554 12.6216394,6.71898753 12.6175355,6.79564733 C12.6166874,6.8114887 12.6131338,6.827068 12.6070287,6.84171027 L11.555441,9.36380769 C11.5358746,9.41073503 11.4922487,9.44323578 11.4416846,9.44855471 L7.53120766,9.85990444 C7.45485933,9.86793565 7.39947736,9.93633878 7.40750857,10.0126871 C7.41206649,10.0560168 7.43667648,10.0947027 7.47399078,10.1171945 L11.238,12.386 L16.4646235,0.0846863023 C16.4946402,0.0140282193 16.5762533,-0.0189181052 16.6469113,0.0110986269 Z M55.94804,9.52266111 L57.6259845,9.82444935 L51.4536088,22.0953339 L49.8955466,21.7376241 L52.2926486,17.0290554 L48.9367597,9.82444935 L50.6745777,9.52266111 L53.0716797,15.2558311 L55.94804,9.52266111 Z M61.9407547,9.52270143 L62.6597772,10.4950107 C62.6597772,10.4950107 61.0867127,10.9793506 60.2361848,11.336926 C58.8163857,12.2309988 59.5885239,13.4080401 59.9631725,13.9594591 C60.3376859,14.5107435 62.6597772,18.0422708 62.6597772,19.1746825 C62.4271959,21.6043526 58.7508296,22.0688906 58.5347739,22.0941145 L58.5248572,22.0952398 L57.8127276,20.8435915 C57.8127276,20.8435915 59.0642592,20.6051184 60.2361848,20.1879919 C61.7078833,19.1746825 60.5024394,17.8037976 60.5024394,17.8037976 C60.5024394,17.8037976 58.1054724,13.8476159 57.8657082,12.9759923 C57.2664326,10.055435 61.9407547,9.52270143 61.9407547,9.52270143 Z M77.9408839,9.89146146 L81.3342106,9.9362256 C84.0533861,10.3831948 83.7387462,12.5513652 83.7387462,13.8924073 C83.6797343,16.1805368 82.1583749,16.706152 81.7789571,16.8018038 L81.7160811,16.8162052 C81.7015814,16.8191357 81.693857,16.8203581 81.693857,16.8203581 L84,21.5587696 L82.5253281,22.0952671 C82.5253281,22.0952671 80.0982217,16.3509396 79.8510239,15.758655 C81.761164,16.0381284 82.0083617,14.4510852 82.0083617,14.4510852 L82.0083617,12.5289159 C81.8061705,10.6738256 79.4390727,11.1432441 79.4390727,11.1432441 L79.4390727,21.6929276 L77.9408839,21.6929276 L77.9408839,9.89146146 Z M45.9403957,9.52270143 L48.9367732,21.7376644 L47.4385845,21.7376644 L45.2812467,13.15478 L43.8393747,19.9236611 L46.8093316,19.9246501 L45.326145,21.3998501 L43.8343747,19.9456611 L43.4535509,21.7376644 L41.6857287,21.7376644 L44.442342,10.4950107 L45.9403957,9.52270143 Z M73.8059369,9.52270143 L76.9221966,21.6929003 L75.3641343,21.7376644 L73.1469231,13.15478 L71.2292143,21.7376644 L69.4313878,21.7376644 L72.3078832,10.4950107 L73.8059369,9.52270143 Z M32.5470744,9.82444935 C34.2098815,10.003237 34.5919636,10.8748606 34.9290391,11.5007519 C35.2661148,12.5066679 35.0863591,14.6747039 34.9290391,15.4121695 C34.5407021,16.6996989 32.6612755,16.9159708 32.5115427,16.9312125 L32.5020679,16.9321337 L30.9738748,16.9098188 L30.9738748,21.7376241 L29.3783747,21.7376241 L29.3783747,9.82444935 L32.5470744,9.82444935 Z M37.7905325,9.82444935 L37.7905325,20.3667393 L40.4272637,20.3667393 L41.1464213,21.7376241 L36.1125881,21.7376241 L36.1125881,9.82444935 L37.7905325,9.82444935 Z M68.9070825,9.82446279 L68.2329314,11.076111 L66.9745068,11.076111 L66.9295004,21.6930079 L65.5361915,21.6930079 L65.4014424,11.1208752 L63.7609358,11.1320326 L64.435087,9.82446279 L68.9070825,9.82446279 Z M74.7000252,19.9246501 L73.2169737,21.3998501 L71.7037827,19.9246501 L74.7000252,19.9246501 Z M15.347548,6.13402546 C15.3010932,6.15104277 15.2671844,6.1914688 15.2585103,6.240176 L13.88,13.979 L19.64,17.451 L15.5258826,6.21673452 C15.4994763,6.14464931 15.4196332,6.1076192 15.347548,6.13402546 Z M32.2493288,11.1431766 L30.883997,11.1882096 L30.883997,15.7810367 L32.1424215,15.7810367 C32.1424215,15.7810367 33.3559747,15.5240126 33.4234169,14.518231 C33.490859,13.5124495 33.4234169,12.3725099 33.4234169,12.3725099 C33.4234169,12.3725099 33.1875721,11.1431766 32.2493288,11.1431766 Z" id="形状结合"></path>
                        </g>
                    </g>
                </g>
            </g>
        </g>
    </g>
</svg>