<?xml version="1.0" encoding="UTF-8"?>
<svg width="62px" height="24px" viewBox="0 0 62 24" version="1.1" xmlns="http://www.w3.org/2000/svg" xmlns:xlink="http://www.w3.org/1999/xlink">
    <title>SABA</title>
    <g id="页面-1" stroke="none" stroke-width="1" fill="none" fill-rule="evenodd">
        <g id="PC-Footer---EN" transform="translate(-1112.000000, -712.000000)" fill="#858CA6" fill-rule="nonzero">
            <g id="Footer-EN" transform="translate(0.000000, 623.000000)">
                <g id="Business-Support" transform="translate(590.000000, 15.000000)">
                    <g id="Game-Provider" transform="translate(0.000000, 54.000000)">
                        <g id="SABA" transform="translate(522.000000, 20.000000)">
                            <path d="M12.109375,0 C18.79375,0 24.21875,5.376 24.21875,12 C24.21875,18.72 18.79375,24 12.109375,24 C5.425,24 0,18.624 0,12 C0,5.376 5.425,0 12.109375,0 Z M9.784375,0.48 C9.49375,0.576 9.3,0.576 9.009375,0.672 C6.296875,3.264 4.45625,6.816 3.875,10.464 C3.1,9.12 2.421875,7.584 2.034375,6.144 C0.96875,7.968 0.3875,9.984 0.3875,12.096 L0.3875,12.096 L0.3875,12.864 C0.58125,13.152 0.775,13.536 0.96875,13.824 C1.55,14.592 2.13125,15.264 2.7125,15.936 C3.1,16.992 3.584375,18.048 4.2625,19.008 C4.45625,19.296 4.65,19.584 4.84375,19.776 C3.971875,19.392 3.003125,18.816 2.228125,18.24 C3.390625,20.16 5.0375,21.6 6.975,22.464 C6.9265625,22.392 6.88417969,22.326 6.84482422,22.263 L6.62080078,21.897 L6.62080078,21.897 L6.490625,21.696 C6.878125,21.984 7.265625,22.368 7.653125,22.656 C7.75,22.68 7.846875,22.71 7.94375,22.743 L8.525,22.953 L8.525,22.953 L8.815625,23.04 C7.75,22.272 6.78125,21.408 5.909375,20.448 C7.16875,20.928 8.621875,21.216 9.978125,21.216 L9.978125,21.216 L10.4625,21.216 C11.625,21.216 12.7875,21.12 13.95,20.832 L13.95,20.832 L14.14375,20.832 C16.759375,20.832 19.084375,20.256 21.3125,19.2 C21.3609375,19.152 21.4033203,19.098 21.4426758,19.041 L21.6666992,18.687 L21.6666992,18.687 L21.796875,18.528 C19.7625,19.584 17.63125,20.256 15.403125,20.448 C16.46875,20.064 17.63125,19.488 18.6,18.816 C19.665625,18.816 20.73125,18.624 21.796875,18.432 C23.153125,16.416 23.83125,14.208 23.83125,11.904 C23.83125,11.328 23.83125,10.752 23.734375,10.176 C23.25,13.632 21.409375,16.608 18.6,18.528 L18.6,18.528 L18.309375,18.528 C12.59375,18.528 7.265625,15.648 4.165625,10.944 C4.746875,6.912 6.684375,3.168 9.784375,0.48 Z M30.709375,14.4 L30.709375,15.936 L28.2875,15.936 C27.9,15.936 27.609375,16.224 27.609375,16.608 C27.609375,16.8 27.70625,16.896 27.803125,17.088 C27.9,17.184 28.09375,17.28 28.2875,17.28 L29.0625,17.28 C30.225,17.28 31.19375,18.24 31.19375,19.392 C31.19375,20.544 30.225,21.504 29.0625,21.504 L26.640625,21.504 L26.640625,19.968 L29.0625,19.968 C29.45,19.968 29.740625,19.68 29.740625,19.296 C29.740625,19.104 29.64375,19.008 29.546875,18.816 C29.45,18.72 29.25625,18.624 29.0625,18.624 L28.2875,18.624 C27.125,18.624 26.15625,17.664 26.15625,16.512 C26.15625,15.36 27.125,14.4 28.2875,14.4 L30.709375,14.4 Z M61.515625,14.4 L61.515625,15.936 L59.09375,15.936 C58.70625,15.936 58.415625,16.224 58.415625,16.608 C58.415625,16.8 58.5125,16.896 58.609375,17.088 C58.70625,17.184 58.9,17.28 59.09375,17.28 L59.86875,17.28 C61.03125,17.28 62,18.24 62,19.392 C62,20.544 61.03125,21.504 59.86875,21.504 L57.446875,21.504 L57.446875,19.968 L59.86875,19.968 C60.25625,19.968 60.546875,19.68 60.546875,19.296 C60.546875,19.104 60.45,19.008 60.353125,18.816 C60.25625,18.72 60.0625,18.624 59.86875,18.624 L59.09375,18.624 C57.93125,18.624 56.9625,17.664 56.9625,16.512 C56.9625,15.36 57.93125,14.4 59.09375,14.4 L61.515625,14.4 Z M34.875,14.208 C36.0375,14.208 37.00625,15.168 37.00625,16.32 C37.00625,16.896 36.8125,17.472 36.328125,17.856 C35.940625,18.24 35.359375,18.528 34.778125,18.528 C34.778125,18.624 33.51875,18.624 33.51875,18.624 L33.51875,21.408 L31.96875,21.408 L31.96875,14.208 L34.875,14.208 Z M48.63125,14.208 C49.79375,14.208 50.7625,15.168 50.7625,16.32 C50.7625,16.896 50.56875,17.472 50.084375,17.856 C49.890625,18.048 49.696875,18.144 49.503125,18.24 L50.95625,21.216 L49.40625,21.216 L48.05,18.432 L47.371875,18.432 L47.371875,18.624 L47.275,18.624 L47.275,21.408 L45.725,21.408 L45.725,14.208 L48.63125,14.208 Z M39.428125,14.88 C40.784375,13.92 42.721875,14.016 43.98125,15.264 C44.36875,15.744 44.659375,16.224 45.046875,16.8 C45.628125,18.72 44.465625,20.64 42.625,21.216 C40.6875,21.792 38.75,20.64 38.16875,18.816 L38.16875,18.816 L38.265625,18.816 L40.978125,19.68 C42.04375,19.968 43.20625,19.392 43.59375,18.336 C43.884375,17.28 43.303125,16.128 42.2375,15.744 L42.2375,15.744 L40.396875,15.168 Z M56.090625,14.208 L56.090625,15.744 L54.6375,15.744 L54.6375,21.312 L53.0875,21.312 L53.0875,15.744 L51.5375,15.744 L51.5375,14.208 L56.090625,14.208 Z M4.65,17.856 C6.78125,19.392 9.203125,20.448 11.721875,20.832 C11.7945313,20.832 11.8611328,20.838 11.924707,20.847 L12.294043,20.913 L12.294043,20.913 L12.496875,20.928 C11.721875,21.024 10.85,21.024 9.978125,21.12 C8.428125,21.024 6.975,20.736 5.521875,20.256 C5.23125,19.488 4.84375,18.624 4.65,17.856 Z M4.165625,11.52 C7.3625,16.032 12.496875,18.816 18.01875,18.912 C16.85625,19.68 15.5,20.256 14.046875,20.64 C13.271875,20.64 12.496875,20.544 11.81875,20.448 C9.10625,19.968 6.684375,18.912 4.553125,17.088 C4.2625,15.744 4.06875,14.4 4.06875,13.056 C4.06875,12.576 4.06875,12 4.165625,11.52 Z M3.390625,16.608 C3.68125,16.8 3.971875,17.088 4.2625,17.376 C4.45625,18.048 4.65,18.624 4.84375,19.2 L4.732,18.868 L4.70735,18.825216 L4.70735,18.825216 L4.65,18.72 C4.165625,18.048 3.778125,17.28 3.390625,16.608 Z M38.071875,17.088 L39.525,17.568 L39.525,17.568 L39.525,18.624 L37.878125,18.048 L37.878125,18.048 L37.8786899,17.7681166 C37.8820791,17.5817143 37.9058036,17.3348571 38.071875,17.088 L38.071875,17.088 Z M48.63125,15.648 L47.275,15.648 L47.275,16.992 L48.63125,16.992 C49.01875,16.992 49.309375,16.704 49.309375,16.32 C49.309375,16.128 49.2125,16.032 49.115625,15.84 C49.01875,15.744 48.825,15.648 48.63125,15.648 Z M34.875,15.648 L33.51875,15.648 L33.51875,16.992 L34.875,16.992 C35.2625,16.992 35.553125,16.704 35.553125,16.32 C35.553125,16.128 35.45625,16.032 35.359375,15.84 C35.2625,15.744 35.06875,15.648 34.875,15.648 Z M38.75,15.456 L40.396875,16.032 C40.10625,16.224 39.815625,16.512 39.621875,16.8 L39.621875,16.8 L38.16875,16.32 L38.16875,16.32 L38.75,15.456 Z M1.840625,6.912 C2.325,8.352 2.90625,9.792 3.778125,11.04 C3.584375,12.96 3.68125,14.88 4.06875,16.704 C3.778125,16.416 3.390625,16.032 2.90625,15.744 C1.840625,12.96 1.55,9.888 1.840625,6.912 Z M17.146875,7.968 L15.596875,10.848 L14.434375,12.96 L17.921875,11.808 L19.56875,14.88 L21.021875,14.88 L17.146875,7.968 Z M15.69375,13.248 L13.853125,13.824 L13.465625,14.688 L14.91875,14.688 L15.69375,13.248 Z M12.884375,9.312 C12.59375,9.6 12.109375,9.888 11.721875,9.984 C11.81875,10.08 11.915625,10.176 11.915625,10.368 L11.915625,10.368 L11.9071969,10.454112 C11.8575,10.71072 11.5959375,10.944 11.334375,10.944 L11.334375,10.944 L10.075,10.944 L10.075,9.984 L8.71875,9.984 L8.71875,14.688 L11.43125,14.688 L11.5757391,14.6823 C12.4850078,14.61048 13.271875,13.8672 13.271875,12.864 C13.271875,12.48 13.078125,12 12.690625,11.616 C12.98125,11.232 13.175,10.848 13.175,10.368 C13.175,9.984 13.078125,9.6 12.884375,9.312 Z M11.2375,12.288 C11.625,12.288 11.81875,12.576 11.81875,12.864 L11.81875,12.864 L11.8103219,12.950112 C11.760625,13.20672 11.4990625,13.44 11.2375,13.44 L11.2375,13.44 L10.075,13.44 L10.075,12.288 Z M47.759375,2.688 C48.534375,2.688 49.309375,2.976 49.890625,3.552 C50.471875,4.128 50.7625,4.896 50.7625,5.664 C50.7625,6.336 50.471875,7.008 50.084375,7.584 C51.053125,8.736 51.053125,10.464 49.890625,11.616 C49.309375,12.192 48.534375,12.48 47.759375,12.48 L41.365625,12.48 L39.040625,8.16 L34.584375,9.504 L38.459375,2.688 L43.69,12.301 L43.690625,2.688 L47.759375,2.688 Z M55.99375,2.688 L61.515625,12.48 L58.996875,12.48 L56.575,8.16 L52.215625,9.504 L55.99375,2.688 Z M36.715625,10.08 L35.359375,12.48 L32.9375,12.48 L33.7125,11.04 L36.715625,10.08 Z M54.44375,10.08 L53.0875,12.48 L50.665625,12.48 L51.440625,11.04 L54.44375,10.08 Z M32.453125,2.688 L32.453125,4.704 L29.159375,4.704 C28.675,4.704 28.2875,5.088 28.2875,5.568 C28.2875,6.048 28.675,6.432 29.159375,6.432 L30.225,6.432 C31.813058,6.432 33.1308793,7.68171429 33.2229838,9.234293 L33.228125,9.408 C33.228125,10.9817143 31.9670201,12.2876327 30.4002903,12.3789052 L30.225,12.384 L26.93125,12.384 L26.93125,10.272 L30.225,10.272 C30.709375,10.272 31.096875,9.888 31.096875,9.408 C31.096875,8.928 30.709375,8.64 30.225,8.64 L29.159375,8.736 C28.384375,8.736 27.609375,8.448 27.028125,7.872 C26.446875,7.296 26.15625,6.528 26.15625,5.664 C26.15625,4.8 26.446875,4.128 27.028125,3.552 C27.609375,2.976 28.384375,2.688 29.159375,2.688 L32.453125,2.688 Z M47.759375,8.736 L45.821875,8.736 L45.821875,10.464 L47.759375,10.464 C48.2064904,10.464 48.5710614,10.1368047 48.6245036,9.708934 L48.63125,9.6 C48.63125,9.15692308 48.3010725,8.79564497 47.8693019,8.74268548 L47.759375,8.736 Z M12.4,2.976 L10.171875,2.976 C9.10625,2.976 8.234375,3.84 8.234375,4.896 C8.234375,5.952 9.10625,6.816 10.171875,6.816 L10.171875,6.816 L10.85,6.816 L10.9368969,6.824352 C11.1958438,6.8736 11.43125,7.1328 11.43125,7.392 C11.43125,7.68 11.2375,7.872 10.85,7.872 L10.85,7.872 L8.71875,7.872 L8.71875,9.216 L10.85,9.216 C11.915625,9.216 12.7875,8.352 12.7875,7.296 C12.7875,6.24 11.915625,5.376 10.85,5.376 L10.85,5.376 L10.171875,5.376 C10.075,5.376 9.88125,5.28 9.784375,5.184 C9.6875,5.088 9.6875,4.896 9.6875,4.8 C9.6875,4.512 9.978125,4.224 10.26875,4.32 L10.26875,4.32 L12.4,4.32 L12.4,2.976 Z M16.759375,3.072 L14.434375,7.2 L17.146875,6.336 L18.6,9.024 L20.053125,9.024 L16.759375,3.072 Z M15.790625,7.488 L13.95,8.064 L13.465625,8.928 L15.015625,8.928 L15.790625,7.488 Z M47.6625,4.8 L45.821875,4.8 L45.821875,6.528 L47.759375,6.528 C48.146875,6.528 48.534375,6.144 48.534375,5.664 C48.534375,5.22092308 48.2041975,4.85964497 47.7724269,4.80668548 L47.6625,4.8 Z" id="形状结合"></path>
                        </g>
                    </g>
                </g>
            </g>
        </g>
    </g>
</svg>