<?xml version="1.0" encoding="UTF-8"?>
<svg width="88px" height="24px" viewBox="0 0 88 24" version="1.1" xmlns="http://www.w3.org/2000/svg" xmlns:xlink="http://www.w3.org/1999/xlink">
    <title>PNG</title>
    <g id="页面-1" stroke="none" stroke-width="1" fill="none" fill-rule="evenodd">
        <g id="PC-Footer---EN" transform="translate(-1545.000000, -712.000000)" fill="#858CA6" fill-rule="nonzero">
            <g id="Footer-EN" transform="translate(0.000000, 623.000000)">
                <g id="Business-Support" transform="translate(590.000000, 15.000000)">
                    <g id="Game-Provider" transform="translate(0.000000, 54.000000)">
                        <g id="PNG" transform="translate(955.000000, 20.000000)">
                            <path d="M76.1145971,0 C78.1428506,0 80.109398,0.853345148 81.216084,2.315463 C81.8370578,3.15252548 82.197653,4.14371954 82.3009693,5.19485367 L82.308,5.299 L84.5361419,5.29951263 C85.5690487,5.29951263 86.5482027,5.72445429 87.1736783,6.42520278 L87.302186,6.57953035 C87.9331982,7.37474524 88.1365244,8.3830099 87.9110739,9.45518948 L87.8561997,9.68586619 L86.2572062,14.9242357 C85.7223621,16.9283234 83.2867526,18.5328217 81.2360134,18.6342523 L81.0323071,18.6393443 L78.537,18.639 L78.511746,18.7004874 C76.958438,21.6599658 73.4923868,23.8706099 70.25206,23.9945165 L69.966789,24 L49.0041449,24 C47.0375975,24 45.3151917,23.147984 44.2715533,21.7470093 C43.711808,20.9156563 43.3560499,19.9843389 43.2496319,18.9520583 L43.23,18.7 L3.39124494,18.7004874 C2.35833805,18.7004874 1.43293694,18.3288082 0.813537807,17.636242 L0.685565463,17.482942 C0.112145638,16.6864865 -0.141093917,15.6781391 0.0785361697,14.6556656 L0.132893205,14.43642 L1.85395754,8.95480727 C2.38757213,7.01436145 4.29800885,5.47043074 6.25471479,5.36626007 L6.46447829,5.36065574 L47.0053335,5.36046063 C48.4554252,2.37045977 51.7270538,0.127556052 54.9385768,0.00525738885 L55.2136591,0 L76.1145971,0 Z M64.9270082,2.25431989 L55.3370714,2.25431989 C52.5696858,2.25431989 49.6815708,4.26406735 48.8203679,7.00620292 L48.8203679,7.00620292 L45.6854285,16.8741693 C44.8242256,19.6149756 46.361513,21.8081524 49.1275571,21.8081524 L49.1275571,21.8081524 L54.1069732,21.8081524 C56.8730174,21.8081524 59.5786968,19.6149756 60.4385583,16.8728401 L60.4385583,16.8728401 L62.5285179,10.1736819 C62.5902241,10.1125388 62.5285179,10.0513957 62.4681532,10.0513957 L62.4681532,10.0513957 L55.4591422,10.0513957 C55.4591422,10.0513957 55.3974361,10.0513957 55.3974361,10.1125388 L55.3974361,10.1125388 L54.1686793,13.8887904 C54.1069732,13.9499335 54.1686793,14.0110767 54.2303854,14.0110767 L54.2303854,14.0110767 L56.258639,14.0110767 C56.3203451,14.0110767 56.3203451,14.0722198 56.3203451,14.1320337 L56.3203451,14.1320337 L55.4591422,16.8741693 C55.4591422,16.9339832 55.4591422,16.9339832 55.3974361,16.9339832 L50.8486215,16.9339832 C50.7869153,16.9339832 50.7869153,16.8741693 50.7869153,16.8116969 L50.7869153,16.8116969 L53.799784,7.18830306 C53.799784,7.12715995 53.799784,7.12715995 53.8614901,7.12715995 L63.3897208,7.12715995 C63.4514269,7.12583075 63.4514269,7.06468764 63.4514269,7.06468764 L63.4514269,7.06468764 L64.9873729,2.37660611 C65.049079,2.315463 64.9873729,2.25431989 64.9270082,2.25431989 L64.9270082,2.25431989 Z M76.4834924,2.25431989 L71.8729717,2.25431989 C69.0452214,2.25431989 66.0940589,4.32521046 65.1724913,7.12715995 L62.1609641,16.7505538 C61.2997612,19.5538325 62.7753424,21.8081524 65.6030927,21.8081524 L70.2136135,21.8081524 C73.0413638,21.8081524 76.1159386,19.4926894 77.0375061,16.6907399 L79.9886687,7.12715995 C80.9102362,4.32521046 79.3112427,2.25431989 76.4834924,2.25431989 Z M75.0079112,7.06601684 C75.0696173,7.06601684 75.1313234,7.12715995 75.0696173,7.18830306 L72.0580901,16.8741693 C72.0087252,16.9220204 71.9593603,16.9315906 71.9415889,16.9335047 L67.2624509,16.9339832 C67.2007448,16.9339832 67.1403801,16.8741693 67.2007448,16.8130261 L70.2753196,7.12715995 C70.2753196,7.08130261 70.3100293,7.06983828 70.3273841,7.0669722 L75.0079112,7.06601684 Z M30.3152374,8.04164821 L28.4707608,8.04164821 C28.4707608,8.04164821 28.4090547,8.04164821 28.4090547,8.10146212 L28.4090547,8.10146212 L27.1802979,12 C26.8717673,13.0367745 27.4244395,13.9499335 28.4707608,14.0110767 C28.5324669,14.0110767 28.5324669,14.0722198 28.5324669,14.1320337 L28.5324669,14.1320337 L27.9784532,15.8985379 C27.9167471,15.959681 27.9784532,16.0208241 28.0401593,16.0208241 L28.0401593,16.0208241 L29.8859774,16.0208241 C29.8859774,16.0208241 29.9476835,16.0208241 29.9476835,15.959681 L29.9476835,15.959681 L29.9463421,15.959681 L30.5607204,14.1320337 C30.5607204,14.0722198 30.5607204,14.0722198 30.6210851,14.0722198 C31.6674064,14.0110767 32.7740923,13.1577315 33.1429877,12.0611431 L33.1429877,12.0611431 L34.3717444,8.22374834 C34.4334505,8.16260523 34.3717444,8.10146212 34.3113797,8.10146212 L34.3113797,8.10146212 L32.5272678,8.10146212 C32.5272678,8.10146212 32.4669031,8.10146212 32.4669031,8.16260523 C32.3434909,8.52813469 31.3602172,11.6357997 31.2368049,12.0611431 L31.2368049,12.0611431 L29.2085514,12.0611431 C29.2634833,11.8422242 29.4680894,11.1420425 29.6934081,10.3880418 L29.845274,9.88209221 C30.0734298,9.12528024 30.2936402,8.40963669 30.3769435,8.16260523 C30.4373082,8.10146212 30.3769435,8.04164821 30.3152374,8.04164821 L30.3152374,8.04164821 Z M41.873063,9.99025255 C41.8456381,10.0174273 41.4175705,10.0325243 40.9504043,10.0409116 L40.5983478,10.0460278 C40.3082734,10.0493827 40.0382332,10.0506408 39.8764947,10.0511126 L39.7213972,10.0513957 L39.7213972,10.0513957 C38.6147113,10.0513957 37.4463192,10.9645547 37.0787653,12.0611431 L35.9103733,15.8985379 C35.9103733,15.959681 35.9103733,16.0208241 35.9720794,16.0208241 L37.8152145,16.0208241 C37.8769207,16.0208241 37.8769207,16.0208241 37.8769207,15.959681 C38.0003329,15.5343376 38.8601944,12.7310589 39.1070189,12.0611431 L41.0735663,12.0611431 C40.975373,12.4024812 40.7885376,13.0066814 40.5918721,13.6400603 L40.4437614,14.116914 C40.1979429,14.9086176 39.967551,15.65463 39.9065156,15.8985379 C39.9065156,15.959681 39.9065156,16.0208241 39.9668803,16.0208241 L41.8113569,16.0208241 C41.873063,16.0208241 41.873063,16.0208241 41.873063,15.959681 L43.1031612,12 C43.4103504,10.9645547 42.8563367,10.0513957 41.873063,9.99025255 Z M25.2137505,8.04164821 L23.1237908,8.04164821 C22.0171049,8.04164821 20.8487128,8.95480727 20.4811589,10.0513957 L18.7587531,15.8998671 C18.7587531,15.959681 18.7587531,16.0208241 18.8204593,16.0208241 L20.6649359,16.0208241 C20.726642,16.0208241 20.726642,16.0208241 20.726642,15.959681 L21.4644326,13.6455472 C21.4644326,13.5844041 21.5247973,13.5844041 21.5247973,13.5844041 L23.3692739,13.5844041 C23.43098,13.5844041 23.4926861,13.6455472 23.43098,13.7066903 L22.7548955,15.8998671 C22.7548955,15.959681 22.7548955,16.0208241 22.8166016,16.0208241 L24.6597368,16.0208241 C24.7214429,16.0208241 24.7214429,16.0208241 24.7214429,15.959681 L26.5659195,10.0513957 C26.9348148,8.95480727 26.3204364,8.04164821 25.2137505,8.04164821 Z M11.074999,8.04164821 L7.07885668,8.04164821 C7.01715055,8.04164821 7.01715055,8.04164821 7.01715055,8.10146212 L4.6200017,15.8985379 C4.6200017,15.959681 4.6200017,16.0208241 4.68170783,16.0208241 L6.52618442,16.0208241 C6.58789054,16.0208241 6.58789054,16.0208241 6.58789054,15.959681 L7.20226893,14.0722198 C7.20226893,14.0110767 7.26397505,14.0110767 7.26397505,14.0110767 L9.23052245,14.0110767 C10.3372084,14.0110767 11.5056005,13.0965884 11.8731544,12 L12.4888742,9.99025255 C12.7960634,8.95480727 12.1803436,8.04164821 11.074999,8.04164821 Z M15.9310029,8.04164821 L14.0865263,8.04164821 C14.0865263,8.04164821 14.0248201,8.04164821 14.0248201,8.10146212 L14.0248201,8.10146212 L11.5673066,16.0208241 L17.4065841,16.0208241 C17.4065841,16.0208241 17.4682903,16.0208241 17.4682903,15.959681 L17.4682903,15.959681 L18.697047,12.1222862 C18.7587531,12.0611431 18.697047,12 18.6353409,12 L18.6353409,12 L16.7922057,12 C16.7922057,12 16.7304996,12 16.7304996,12.0624723 L16.7304996,12.0624723 L16.1147798,13.9499335 C16.1147798,14.0110767 16.1147798,14.0110767 16.0544151,14.0110767 L16.0544151,14.0110767 L14.2716446,14.0110767 C14.2085971,14.0110767 14.2085971,13.9499335 14.2085971,13.8887904 L14.2085971,13.8887904 L15.992709,8.16260523 C16.0544151,8.10146212 15.992709,8.04164821 15.9310029,8.04164821 L15.9310029,8.04164821 Z M24.5993721,10.0513957 L23.9836523,12.0611431 L21.9553988,12.0611431 L22.5697771,10.0513957 L24.5993721,10.0513957 Z M10.4606207,10.0513957 L9.84490084,12.0611431 L7.81664731,12.0611431 L8.43102569,10.0513957 L10.4606207,10.0513957 Z M37.816556,8.04164821 L35.4797718,8.04164821 L34.8036873,10.4169251 L37.0787653,10.4169251 L37.816556,8.04164821 Z"></path>
                        </g>
                    </g>
                </g>
            </g>
        </g>
    </g>
</svg>