<?xml version="1.0" encoding="UTF-8"?>
<svg width="98px" height="24px" viewBox="0 0 98 24" version="1.1" xmlns="http://www.w3.org/2000/svg" xmlns:xlink="http://www.w3.org/1999/xlink">
    <title>MG</title>
    <g id="页面-1" stroke="none" stroke-width="1" fill="none" fill-rule="evenodd">
        <g id="PC-Footer---EN" transform="translate(-1427.000000, -712.000000)" fill="#858CA6" fill-rule="nonzero">
            <g id="Footer-EN" transform="translate(0.000000, 623.000000)">
                <g id="Business-Support" transform="translate(590.000000, 15.000000)">
                    <g id="Game-Provider" transform="translate(0.000000, 54.000000)">
                        <g id="MG" transform="translate(837.000000, 20.000000)">
                            <path d="M12.1111111,0 C16.2,0 20,2.05084945 22.2444444,5.38072329 C25.9111111,10.9378637 24.3555556,18.3914886 18.7555556,22.0300925 C13.1555556,25.6686964 5.64444444,24.1250462 1.97777778,18.5679058 C2.51111111,17.7519764 3.04444444,16.9139949 3.55555556,16.0760134 C4.37777778,14.7749369 5.15555556,13.4738604 5.91111111,12.1507317 L5.91111111,12.1507317 L6.46666667,11.1583852 C6.66666667,10.827603 6.84444444,10.4968208 7.02222222,10.1660387 C7.24444444,9.76910007 7.46666667,9.35010933 7.68888889,8.93111858 L7.68888889,8.93111858 L7.68888889,10.673238 C7.71111111,11.9081581 7.75555556,13.1210261 7.88888889,14.3559462 C7.95555556,14.9734062 8.04444444,15.6129184 8.17777778,16.2303785 C8.31111111,16.9139949 8.53333333,17.5755593 8.84444444,18.1930193 C9.04444444,18.5899579 9.33333333,18.9427922 9.66666667,19.2294701 C9.88888889,19.4058873 10.1333333,19.5602523 10.4,19.6484609 C10.6666667,19.7366694 10.9777778,19.7807737 11.2666667,19.7587216 L11.2666667,19.7587216 L11.6666667,19.6925652 C11.7333333,19.6925652 11.7777778,19.670513 11.8444444,19.6484609 L11.8444444,19.6484609 L11.9333333,19.6264087 L11.9777778,19.6264087 L12.0444444,19.6043566 L12.0666667,19.6043566 L12.1777778,19.5602523 L12.3777778,19.4499916 C12.4888889,19.4058873 12.5777778,19.3397308 12.6666667,19.2735744 C12.9555556,19.0310008 13.2444444,18.7884272 13.4888889,18.5017494 C13.9111111,18.0166022 14.3111111,17.4873507 14.6666667,16.9360471 C15.0222222,16.4067956 15.3333333,15.8775441 15.6444444,15.3041884 C16.2666667,14.2236333 16.8,13.1430782 17.3333333,12.0625231 C17.4666667,11.8199495 17.5777778,11.5553238 17.7111111,11.2906981 L17.7111111,11.2906981 L18.1012346,12.1727838 L18.1012346,12.1727838 L18.3111111,12.6138267 C18.6444444,13.2533389 19,13.8928511 19.4222222,14.488259 C19.8444444,15.0836669 20.3333333,15.6349705 20.8888889,16.1201177 C20.9777778,16.2083263 21.1333333,16.2083263 21.2444444,16.1201177 C21.3555556,16.0319092 21.3777778,15.855492 21.2888889,15.7231791 L21.2888889,15.7231791 L21.0850823,15.454878 C20.7574074,15.0015839 20.4888889,14.5176619 20.2666667,14.0031118 C20,13.3856518 19.7777778,12.7461396 19.6,12.1066274 C19.4222222,11.4671152 19.2888889,10.8055509 19.1777778,10.1439865 C19.1111111,9.81320436 19.0666667,9.48242219 19.0222222,9.15164002 L19.0222222,9.15164002 L18.9555556,8.6444407 C18.9333333,8.46802354 18.9111111,8.29160638 18.9111111,8.15929352 L18.9111111,8.15929352 L18.882396,8.03693285 C18.7887517,7.71797837 18.5604938,7.4609756 18.2444444,7.34336416 C17.6888889,7.12284272 17.0444444,7.38746845 16.8222222,7.93877207 C16.6,8.46802354 16.3555556,9.01932716 16.1111111,9.54857863 C15.8666667,10.0998822 15.6,10.6291337 15.3555556,11.1583852 C14.8444444,12.2168881 14.3111111,13.2533389 13.7333333,14.2677376 C13.4444444,14.7749369 13.1555556,15.2821362 12.8444444,15.7452313 C12.5555556,16.2083263 12.2222222,16.6273171 11.8666667,17.0463078 C11.7111111,17.222725 11.5555556,17.37709 11.3777778,17.5094028 C11.3555556,17.531455 11.3111111,17.5535071 11.2888889,17.5755593 L11.2888889,17.5755593 L11.2222222,17.5976114 L11.2,17.5976114 L11.1555556,17.6196636 L11.1555556,17.6196636 L11.1111111,17.6196636 C11.0666667,17.6196636 11.1111111,17.6417157 11.0444444,17.5976114 C10.9333333,17.4873507 10.8444444,17.3550378 10.7777778,17.222725 C10.5555556,16.7816821 10.4,16.2965349 10.3111111,15.8113877 C10.2,15.2600841 10.1111111,14.7087805 10.0444444,14.1574769 C9.93333333,13.0328175 9.86666667,11.8640538 9.86666667,10.6952901 C9.86666667,9.52652648 9.88888889,8.33571067 9.93333333,7.16694701 C9.97777778,6.5715391 10,5.9761312 10.0444444,5.40277544 C10.0888889,4.82941968 10.2,4.23401177 10.2,3.66065601 L10.2,3.66065601 L10.1987778,3.52320499 C10.1717778,3.11574752 9.93777778,2.75651808 9.57777778,2.55804878 C9.02222222,2.31547519 8.37777778,2.53599663 8.11111111,3.0652481 L8.11111111,3.0652481 L8.06666667,3.13140454 L7.57777778,4.12375105 C7.42222222,4.43248107 7.24444444,4.76326324 7.06666667,5.09404541 C6.88888889,5.42482758 6.73333333,5.73355761 6.53333333,6.06433978 C6.33333333,6.39512194 6.15555556,6.70385197 5.97777778,7.03463414 C5.62222222,7.67414633 5.24444444,8.31365853 4.84444444,8.95317072 C4.66666667,9.26190075 4.46666667,9.59268292 4.26666667,9.90141294 L4.26666667,9.90141294 L3.66666667,10.8496552 C2.84444444,12.1066274 2.02222222,13.3415475 1.17777778,14.5764676 C0.977777778,14.9072498 0.755555556,15.2159798 0.533333333,15.5247098 C0.177777778,14.4000504 0,13.2312868 0,12.040471 C0,5.38072329 5.42222222,0 12.1111111,0 Z M60.2888889,9.4383179 C61.1111111,9.4383179 61.8666667,9.81320436 62.4666667,10.1880908 L62.5777778,9.57063077 L63.4666667,9.57063077 L63.4666667,15.6129184 C63.4666667,18.0607065 62.9111111,18.8104794 60.6444444,18.8104794 C59.9777778,18.8104794 59.3111111,18.7443229 58.6666667,18.6561144 L58.7777778,17.9504457 C59.2,17.99455 59.7555556,18.0166022 60.3777778,18.0166022 C62.1111111,18.0166022 62.3333333,17.5535071 62.3555556,15.7452313 C61.8444444,16.0319092 61.1333333,16.3626913 60.4,16.3847435 C57.9627451,16.4275506 57.7445213,15.1615934 57.733793,13.151437 L57.7333333,12.966661 C57.7333333,10.8496552 57.8666667,9.4383179 60.2888889,9.4383179 Z M94.8222222,9.4383179 C95.6444444,9.4383179 96.4,9.81320436 97,10.1880908 L97.1111111,9.57063077 L98,9.57063077 L98,15.6129184 C98,18.0607065 97.4444444,18.8104794 95.1777778,18.8104794 C94.5111111,18.8104794 93.8444444,18.7443229 93.2,18.6561144 L93.3111111,17.9504457 C93.7333333,17.99455 94.2888889,18.0166022 94.9111111,18.0166022 C96.6444444,18.0166022 96.8666667,17.5535071 96.8888889,15.7452313 C96.3777778,16.0319092 95.6666667,16.3626913 94.9333333,16.3847435 C92.4222222,16.4288478 92.2666667,15.0836669 92.2666667,12.966661 C92.2666667,10.8496552 92.4,9.4383179 94.8222222,9.4383179 Z M53.7111111,9.4383179 C56.5555556,9.4383179 56.7111111,11.0260723 56.7111111,12.966661 C56.7111111,14.9072498 56.5555556,16.4950042 53.7111111,16.4950042 C50.945679,16.4950042 50.7218278,14.9942332 50.7115255,13.1275336 L50.7111111,12.966661 C50.7111111,11.0260723 50.8666667,9.4383179 53.7111111,9.4383179 Z M67.3777778,9.4383179 C68.2,9.4383179 68.9333333,9.81320436 69.4888889,10.1439865 L69.6,9.54857863 L70.4888889,9.54857863 L70.4888889,16.3626913 L69.6222222,16.3626913 L69.5111111,15.7452313 C68.9555556,16.0980656 68.2222222,16.4950042 67.4222222,16.4950042 C64.9111111,16.5391085 64.7555556,15.1277712 64.7555556,12.966661 C64.7555556,10.8055509 64.8888889,9.4383179 67.3777778,9.4383179 Z M42.6222222,9.41626576 C44.8444444,9.41626576 45.3555556,10.4306644 45.3555556,11.7537931 L44.2888889,11.7537931 C44.2888889,10.673238 43.9111111,10.1439865 42.6222222,10.1439865 C40.948659,10.1439865 40.8080856,11.0074027 40.8003809,12.7342351 L40.8,12.9225568 C40.8,14.7749369 40.8888889,15.701127 42.6222222,15.701127 C43.9111111,15.701127 44.2888889,15.1718755 44.2888889,14.0913204 L45.3555556,14.1354247 C45.3555556,15.4585534 44.8444444,16.472952 42.6222222,16.472952 C39.8222222,16.472952 39.6666667,14.8851976 39.6666667,12.9446089 C39.6666667,11.0040202 39.8222222,9.41626576 42.6222222,9.41626576 Z M91.1111111,12.2168881 L91.1111111,16.3626913 L89.9777778,16.3626913 L89.9777778,12.2830446 C89.9777778,10.8717073 89.8666667,10.1880908 88.2,10.1880908 C87.6,10.1880908 86.9555556,10.518873 86.4888889,10.7834987 L86.4888889,16.3847435 L85.3555556,16.3847435 L85.3555556,9.54857863 L86.2444444,9.54857863 L86.3555556,10.1439865 C86.9111111,9.83525651 87.6444444,9.46037005 88.4444444,9.4383179 C90.9555556,9.37216147 91.1111111,10.5629773 91.1111111,12.2168881 Z M49.8222222,9.46037005 C50,9.46037005 50.1555556,9.46037005 50.3555556,9.48242219 L50.2666667,10.2983515 C50.0888889,10.2762994 49.9333333,10.2762994 49.7777778,10.2762994 C49.6444444,10.2762994 49.5111111,10.2762994 49.3555556,10.2983515 C48.7555556,10.3204037 48.1111111,10.7614466 47.6444444,11.0260723 L47.6444444,16.3847435 L46.5111111,16.3847435 L46.5111111,9.54857863 L47.4,9.54857863 L47.5555556,10.2762994 C48.0888889,9.94551723 48.7777778,9.50447434 49.4222222,9.48242219 C49.5555556,9.46037005 49.6888889,9.46037005 49.8222222,9.46037005 Z M29.3333333,7.54183347 L31.6222222,14.5544155 L33.8666667,7.54183347 L35.7777778,7.54183347 L35.7777778,16.3847435 L34.7111111,16.3847435 L34.7111111,8.37981496 L34.5111111,8.37981496 L31.9333333,16.3847435 L31.2888889,16.3847435 L28.7111111,8.37981496 L28.5111111,8.37981496 L28.5111111,16.3626913 L27.4444444,16.3626913 L27.4444444,7.54183347 L29.3333333,7.54183347 Z M76.8666667,10.1880908 C77.4,9.85730865 78.1111111,9.46037005 78.8888889,9.4383179 C81.1708333,9.37422886 81.3881293,10.4897788 81.3994819,12.0632149 L81.4,16.3626913 L80.2666667,16.3626913 L80.2666667,12.2830446 C80.2666667,10.8717073 80.1777778,10.1880908 78.6444444,10.1880908 C78.0888889,10.1880908 77.5111111,10.518873 77.0444444,10.8055509 C77.1555556,11.2906981 77.2,11.7978974 77.1777778,12.3050967 L77.1777778,16.3847435 L76.2,16.3847435 L76.2,12.2830446 C76.2,10.8717073 76.1111111,10.1880908 74.5777778,10.1880908 C74.0444444,10.1880908 73.4666667,10.518873 73.0222222,10.7614466 L73.0222222,16.3626913 L71.8888889,16.3626913 L71.8888889,9.54857863 L72.7777778,9.54857863 L72.8888889,10.1439865 C73.4,9.83525651 74.0888889,9.46037005 74.8222222,9.4383179 C75.9777778,9.39421362 76.5777778,9.70294364 76.8666667,10.1880908 Z M38.4888889,9.54857863 L38.4888889,16.3626913 L37.3555556,16.3626913 L37.3555556,9.54857863 L38.4888889,9.54857863 Z M83.9555556,9.54857863 L83.9555556,16.3626913 L82.8222222,16.3626913 L82.8222222,9.54857863 L83.9555556,9.54857863 Z M67.6888889,10.1880908 C66.081746,10.1880908 65.9210317,11.0493058 65.9116021,12.7717358 L65.9111111,12.966661 C65.9111111,14.8190412 66.0222222,15.7452313 67.6888889,15.7452313 C68.2888889,15.7452313 68.9111111,15.4144491 69.4,15.1277712 L69.4,10.7614466 C68.9333333,10.4968208 68.2888889,10.1880908 67.6888889,10.1880908 Z M53.7111111,10.1880908 C51.994636,10.1880908 51.8525829,11.0309495 51.8448271,12.7762128 L51.8444444,12.966661 C51.8444444,14.8190412 51.9333333,15.7452313 53.7111111,15.7452313 C55.4275862,15.7452313 55.5696393,14.9023726 55.5773951,13.1571093 L55.5777778,12.966661 C55.5777778,11.0922288 55.4888889,10.1880908 53.7111111,10.1880908 Z M95.1555556,10.1880908 C93.4888889,10.1880908 93.3777778,11.1142809 93.3777778,12.966661 C93.3777778,14.7749369 93.4888889,15.6349705 95.1555556,15.6349705 C95.7555556,15.6349705 96.4,15.3041884 96.8666667,15.0616148 L96.8666667,10.8055509 C96.3777778,10.4968208 95.7555556,10.1880908 95.1555556,10.1880908 Z M60.6444444,10.1880908 C58.9777778,10.1880908 58.8666667,11.1142809 58.8666667,12.966661 C58.8666667,14.7749369 58.9777778,15.6349705 60.6444444,15.6349705 C61.2444444,15.6349705 61.8888889,15.3041884 62.3555556,15.0616148 L62.3555556,10.8055509 C61.8666667,10.4968208 61.2444444,10.1880908 60.6444444,10.1880908 Z M38.4888889,7.54183347 L38.4888889,8.68854499 L37.3333333,8.68854499 L37.3333333,7.54183347 L38.4888889,7.54183347 Z M83.9555556,7.54183347 L83.9555556,8.68854499 L82.8,8.68854499 L82.8,7.54183347 L83.9555556,7.54183347 Z" id="形状结合"></path>
                        </g>
                    </g>
                </g>
            </g>
        </g>
    </g>
</svg>